<svg id="Logo" xmlns="http://www.w3.org/2000/svg" viewBox="0 0 700 700"><defs><style>.cls-1{fill:#231f20;}</style></defs><title>atomicDeFi_Stacked_Black</title><path class="cls-1" d="M312,297.53a7.11,7.11,0,1,1,7.11,7.11,7.1,7.1,0,0,1-7.11-7.11Zm-2.44,42.07a109.49,109.49,0,0,1-15.31-15.36,131,131,0,0,1,15.24-14.46,2.72,2.72,0,0,0-3.45-4.19,139,139,0,0,0-15.05,14.17c-4.68-7.1-6.19-13.2-4-17.12s8.21-5.62,16.94-5.11a2.72,2.72,0,0,0,.32-5.42c-11-.65-18.64,2.05-22,7.81-2.11,3.63-3.31,10.14,2.7,20.46.7,1.2,1.48,2.42,2.34,3.65-8.41,10.58-11.24,19.71-7.64,26,2.72,4.7,8.59,7.13,17.23,7.13a62.51,62.51,0,0,0,9.56-.82,2.71,2.71,0,0,0-.84-5.36c-11.14,1.73-18.86.41-21.2-3.64-2-3.5-.35-10.07,6.31-18.76A114.83,114.83,0,0,0,306,343.77a2.78,2.78,0,0,0,1.73.63,2.71,2.71,0,0,0,1.74-4.8ZM317.39,310h0a2.71,2.71,0,0,0-2.71,2.71v.51c0,7.38.35,14.7,1,21.74a2.72,2.72,0,0,0,2.7,2.45h.26a2.71,2.71,0,0,0,2.5-2.92v-.05a202,202,0,0,1-1.11-21.22v-.5A2.69,2.69,0,0,0,317.39,310Zm40.76,20.87a220.39,220.39,0,0,1-24,11.6,2.71,2.71,0,1,0,2,5,225.86,225.86,0,0,0,24.57-11.88,2.72,2.72,0,0,0-2.64-4.75Zm62.17-62c-4.08-7.08-15.08-8.94-31.81-5.35a138.84,138.84,0,0,0-18.33,5.35,120.09,120.09,0,0,0-4-13.76c-5.62-15.55-13-23.76-21.46-23.76-15.09,0-24.28,26.12-27.88,50.56a2.72,2.72,0,1,0,5.38.8h0c4-27.08,13.27-45.93,22.5-45.93,5.77,0,11.73,7.35,16.35,20.16a115.21,115.21,0,0,1,4,13.89,228.67,228.67,0,0,0-29.12,14.25c-1.6.92-3.24,1.9-4.89,2.89a2.72,2.72,0,0,0,2.82,4.65h0c1.61-1,3.22-1.94,4.79-2.84a222.66,222.66,0,0,1,27.5-13.55,200.65,200.65,0,0,1,3.18,33.26,2.72,2.72,0,0,0,2.72,2.67h0a2.71,2.71,0,0,0,2.67-2.76h0a206.58,206.58,0,0,0-3.46-35.17c23.29-8.6,40.56-9.21,44.31-2.7,2.05,3.57.24,9.63-5.1,17.09-5.8,8.1-15.16,17.06-27.07,25.94a2.71,2.71,0,0,0,3.25,4.34c12.34-9.19,22.06-18.57,28.23-27.11C419.65,285.18,424.41,275.86,420.32,268.84Zm-33.51,61.8a2.71,2.71,0,1,0-3.54,4.11c16.62,14.35,25.06,28.63,21,35.64-2.8,4.86-11.6,6.39-24.15,4.23a101.41,101.41,0,0,1-13.86-3.47,146.06,146.06,0,0,0,6.94-31,2.71,2.71,0,0,0-5.38-.66,140.21,140.21,0,0,1-6.67,29.86,175.44,175.44,0,0,1-27-12.71,2.71,2.71,0,0,0-2.71,4.7,180.9,180.9,0,0,0,27.66,13.05c-.3.66-.59,1.31-.89,1.94-4.12,8.54-8.91,13.24-13.47,13.24-6.63,0-13.41-9.63-18.19-25.75a2.71,2.71,0,1,0-5.29,1.21,3,3,0,0,0,.09.32C327,384.5,335.31,395,344.74,395c6.86,0,13.24-5.64,18.36-16.31.39-.81.77-1.66,1.1-2.52A111.46,111.46,0,0,0,379.14,380a65.42,65.42,0,0,0,10.91,1c9.33,0,15.88-2.7,18.88-7.89C414.62,363.3,406.34,347.42,386.81,330.64Zm-25.17-17.91-1.72-1a183.25,183.25,0,0,0-25.38-12.2,2.71,2.71,0,0,0-2,5.06,176.18,176.18,0,0,1,24.61,11.84l1.67,1a2.8,2.8,0,0,0,1.38.37,2.71,2.71,0,0,0,1.39-5Zm-33.85,37a7.1,7.1,0,1,0-7.1,7.1,7.1,7.1,0,0,0,7.1-7.1Zm51.4-25.06a7.11,7.11,0,1,0-7.13,7.09h0A7.11,7.11,0,0,0,379.19,324.65Z"/><path class="cls-1" d="M217.08,435.77v19.68a3.91,3.91,0,0,0,1,3,4.92,4.92,0,0,0,3.35.92h4.77V468h-6.46q-13,0-13-12.63V435.77h-4.85v-8.45h4.85V417.26h10.35v10.06h9.11v8.45Z"/><path class="cls-1" d="M237.64,466.07a18.8,18.8,0,0,1-7.39-7.38,22.23,22.23,0,0,1-2.68-11,21.6,21.6,0,0,1,2.76-11,19.08,19.08,0,0,1,7.53-7.38,23,23,0,0,1,21.3,0,19.21,19.21,0,0,1,7.53,7.38,21.69,21.69,0,0,1,2.75,11,21.2,21.2,0,0,1-2.83,11,19.56,19.56,0,0,1-7.64,7.38,22.16,22.16,0,0,1-10.76,2.61A21.4,21.4,0,0,1,237.64,466.07Zm15.83-7.72a9.76,9.76,0,0,0,3.92-4.07,13.74,13.74,0,0,0,1.47-6.61q0-5.81-3-8.93a10,10,0,0,0-7.46-3.12,9.78,9.78,0,0,0-7.38,3.12q-3,3.12-3,8.93t2.9,8.92a9.56,9.56,0,0,0,7.31,3.12A10.71,10.71,0,0,0,253.47,458.35Z"/><path class="cls-1" d="M335.22,431.32q4.59,4.59,4.59,12.82V468H329.53V445.54c0-3.19-.81-5.62-2.43-7.31a8.71,8.71,0,0,0-6.61-2.54,8.86,8.86,0,0,0-6.65,2.54c-1.64,1.69-2.46,4.12-2.46,7.31V468H301.1V445.54c0-3.19-.81-5.62-2.42-7.31a8.73,8.73,0,0,0-6.62-2.54,8.93,8.93,0,0,0-6.72,2.54c-1.64,1.69-2.46,4.12-2.46,7.31V468H272.6V427.32h10.28v4.92a13.82,13.82,0,0,1,5.11-4,15.92,15.92,0,0,1,6.87-1.47,17.75,17.75,0,0,1,8.52,2,14.14,14.14,0,0,1,5.8,5.77,14.69,14.69,0,0,1,5.77-5.66,16.41,16.41,0,0,1,8.19-2.13Q330.63,426.73,335.22,431.32Z"/><path class="cls-1" d="M345.87,420.75a6,6,0,0,1,0-8.6,6.79,6.79,0,0,1,9,0,6,6,0,0,1,0,8.6,6.79,6.79,0,0,1-9,0Zm9.59,6.57V468H345.17V427.32Z"/><path class="cls-1" d="M362.05,436.61a18.39,18.39,0,0,1,7.13-7.34,20.58,20.58,0,0,1,10.43-2.61q7.56,0,12.52,3.78a18.39,18.39,0,0,1,6.65,10.62H387.69a8.06,8.06,0,0,0-3-4.15,8.58,8.58,0,0,0-5.18-1.51,8.45,8.45,0,0,0-7,3.2c-1.72,2.13-2.57,5.15-2.57,9.07s.85,6.87,2.57,9a8.45,8.45,0,0,0,7,3.2c4.17,0,6.88-1.86,8.16-5.58h11.09a18.74,18.74,0,0,1-6.68,10.5,19.69,19.69,0,0,1-12.49,3.9,20.58,20.58,0,0,1-10.43-2.61,18.41,18.41,0,0,1-7.13-7.35,25.06,25.06,0,0,1,0-22.11Z"/><path class="cls-1" d="M436,419.9a22.66,22.66,0,0,1,9.47,9,26.77,26.77,0,0,1,3.34,13.55,26.38,26.38,0,0,1-3.34,13.48,22.75,22.75,0,0,1-9.47,8.93A30.71,30.71,0,0,1,421.74,468H403.82V416.74h17.92A30.72,30.72,0,0,1,436,419.9Zm-2.1,35q4.41-4.41,4.41-12.42t-4.41-12.52q-4.41-4.51-12.49-4.52H414.1v33.86h7.27Q429.46,459.27,433.86,454.87Z"/><path class="cls-1" d="M491.47,450.75H461.72a10.12,10.12,0,0,0,3.08,6.91,9.53,9.53,0,0,0,6.69,2.49,8.4,8.4,0,0,0,8.15-4.92h11.09a18.55,18.55,0,0,1-6.76,9.66,19.74,19.74,0,0,1-12.26,3.79,21.24,21.24,0,0,1-10.55-2.61,18.38,18.38,0,0,1-7.27-7.38,22.64,22.64,0,0,1-2.61-11,23,23,0,0,1,2.58-11.09,17.87,17.87,0,0,1,7.19-7.35,21.64,21.64,0,0,1,10.66-2.57,21.35,21.35,0,0,1,10.39,2.5,17.46,17.46,0,0,1,7.12,7.08,21.5,21.5,0,0,1,2.54,10.55A24.92,24.92,0,0,1,491.47,450.75Zm-10.36-6.9a8.18,8.18,0,0,0-2.87-6.36,10.15,10.15,0,0,0-6.83-2.38,9.35,9.35,0,0,0-6.43,2.31,10.21,10.21,0,0,0-3.19,6.43Z"/><path class="cls-1" d="M528,416.74V425H506.6v13.15H523v8.15H506.6V468H496.31V416.74Z"/><path class="cls-1" d="M533.94,420.75a6,6,0,0,1,0-8.6,6.8,6.8,0,0,1,9,0,6,6,0,0,1,0,8.6,6.8,6.8,0,0,1-9,0Zm9.59,6.57V468H533.25V427.32Z"/><path class="cls-1" d="M157.68,436.58a17.64,17.64,0,0,1,16.12-9.92,16.49,16.49,0,0,1,8,1.84,16.11,16.11,0,0,1,5.48,4.62v-5.8H197.6V468H187.25v-5.95a15.37,15.37,0,0,1-5.48,4.74,16.69,16.69,0,0,1-8,1.88,17.29,17.29,0,0,1-9.36-2.65,18.46,18.46,0,0,1-6.69-7.46,23.91,23.91,0,0,1-2.46-11.05A23.54,23.54,0,0,1,157.68,436.58Zm28.1,4.66a10.28,10.28,0,0,0-4-4.11,10.47,10.47,0,0,0-14.58,4,12.77,12.77,0,0,0-1.51,6.35,13.25,13.25,0,0,0,1.51,6.43,10.86,10.86,0,0,0,4,4.22,10.07,10.07,0,0,0,5.25,1.47,10.63,10.63,0,0,0,5.36-1.43,10.37,10.37,0,0,0,4-4.12,14.78,14.78,0,0,0,0-12.85Z"/></svg>