<svg id="Logo" xmlns="http://www.w3.org/2000/svg" viewBox="0 0 700 700"><defs><style>.cls-1{fill:#fff;}</style></defs><title>atomicDeFi_Mark_White</title><path class="cls-1" d="M315.52,335.83a6.44,6.44,0,1,1,6.44,6.44,6.44,6.44,0,0,1-6.44-6.44ZM313.31,374A98.71,98.71,0,0,1,299.43,360a118.76,118.76,0,0,1,13.81-13.1,2.46,2.46,0,0,0-3.12-3.8A124.47,124.47,0,0,0,296.48,356c-4.24-6.43-5.61-12-3.61-15.51s7.44-5.09,15.35-4.63a2.46,2.46,0,0,0,.29-4.91c-10-.59-16.89,1.85-19.9,7.07-1.91,3.29-3,9.19,2.45,18.55.63,1.08,1.34,2.19,2.12,3.3-7.62,9.59-10.19,17.87-6.92,23.53,2.46,4.26,7.78,6.46,15.61,6.46a58.39,58.39,0,0,0,8.66-.74,2.46,2.46,0,0,0-.76-4.86c-10.09,1.57-17.09.37-19.21-3.3-1.83-3.17-.32-9.12,5.72-17a104.62,104.62,0,0,0,13.88,13.8,2.56,2.56,0,0,0,1.57.57,2.46,2.46,0,0,0,2.46-2.46A2.42,2.42,0,0,0,313.31,374Zm7.14-26.87h0a2.46,2.46,0,0,0-2.46,2.46V350c0,6.69.32,13.32.94,19.69a2.45,2.45,0,0,0,2.44,2.23h.24a2.46,2.46,0,0,0,2.26-2.65v0a183.3,183.3,0,0,1-1-19.23v-.45A2.45,2.45,0,0,0,320.45,347.08ZM357.39,366a203.11,203.11,0,0,1-21.73,10.51,2.46,2.46,0,1,0,1.85,4.56,206.55,206.55,0,0,0,22.27-10.77,2.46,2.46,0,0,0-2.39-4.3Zm56.34-56.17c-3.7-6.42-13.67-8.1-28.83-4.85a124.78,124.78,0,0,0-16.61,4.85,109.74,109.74,0,0,0-3.61-12.47c-5.09-14.09-11.81-21.53-19.45-21.53-13.67,0-22,23.67-25.26,45.82a2.46,2.46,0,0,0,4.87.72h0c3.59-24.54,12-41.62,20.39-41.62,5.23,0,10.63,6.66,14.82,18.27a105,105,0,0,1,3.6,12.58,205.84,205.84,0,0,0-26.39,12.92c-1.45.83-2.94,1.72-4.43,2.62a2.46,2.46,0,1,0,2.55,4.21h0c1.46-.89,2.92-1.76,4.34-2.57a200.1,200.1,0,0,1,24.93-12.28,182.35,182.35,0,0,1,2.88,30.14,2.46,2.46,0,0,0,2.46,2.42h0a2.47,2.47,0,0,0,2.42-2.5h0a187.37,187.37,0,0,0-3.13-31.88c21.1-7.8,36.75-8.35,40.15-2.45,1.86,3.23.22,8.73-4.62,15.49-5.26,7.34-13.74,15.46-24.53,23.5a2.46,2.46,0,0,0,1.48,4.43,2.39,2.39,0,0,0,1.46-.48c11.19-8.34,20-16.84,25.59-24.57C413.12,324.64,417.43,316.19,413.73,309.83Zm-30.37,56a2.46,2.46,0,0,0-3.21,3.73c15.06,13,22.71,25.94,19,32.3-2.54,4.39-10.52,5.78-21.89,3.83a94.91,94.91,0,0,1-12.56-3.14A132.52,132.52,0,0,0,371,374.47a2.46,2.46,0,0,0-4.88-.6,127.46,127.46,0,0,1-6,27.06,158.33,158.33,0,0,1-24.43-11.52,2.46,2.46,0,0,0-2.46,4.26,164.38,164.38,0,0,0,25.07,11.83c-.27.6-.54,1.19-.81,1.75-3.73,7.75-8.07,12-12.21,12-6,0-12.15-8.72-16.48-23.33A2.46,2.46,0,0,0,324,397c0,.09.05.19.09.29,5.12,17.33,12.65,26.86,21.19,26.86,6.22,0,12-5.11,16.64-14.78.36-.74.7-1.5,1-2.28a101.61,101.61,0,0,0,13.54,3.41,58.5,58.5,0,0,0,9.89.92c8.45,0,14.39-2.44,17.11-7.14C408.56,395.43,401.06,381,383.36,365.83ZM360.55,349.6l-1.56-.92a165.92,165.92,0,0,0-23-11.06,2.46,2.46,0,0,0-1.77,4.59A160.55,160.55,0,0,1,356.53,353l1.51.89a2.6,2.6,0,0,0,1.25.34,2.46,2.46,0,0,0,1.26-4.58Zm-30.68,33.52a6.43,6.43,0,1,0-6.43,6.43,6.43,6.43,0,0,0,6.43-6.43Zm46.58-22.71a6.44,6.44,0,1,0-6.46,6.41h0A6.44,6.44,0,0,0,376.45,360.41Z"/></svg>