<svg id="Logo" xmlns="http://www.w3.org/2000/svg" xmlns:xlink="http://www.w3.org/1999/xlink" viewBox="0 0 700 700"><defs><style>.cls-1{fill:url(#linear-gradient);}.cls-2{fill:#fff;}.cls-3{fill:url(#linear-gradient-2);}.cls-4{fill:url(#linear-gradient-3);}.cls-5{fill:url(#linear-gradient-5);}</style><linearGradient id="linear-gradient" x1="58.58" y1="1072" x2="188.84" y2="1072" gradientTransform="matrix(1, 0, 0, -1, 0, 1422)" gradientUnits="userSpaceOnUse"><stop offset="0.02" stop-color="#2abcf1"/><stop offset="1" stop-color="#6a4de3"/></linearGradient><linearGradient id="linear-gradient-2" x1="460.36" y1="350.38" x2="611.19" y2="350.38" gradientTransform="matrix(1, 0, 0, 1, 0, 0)" xlink:href="#linear-gradient"/><linearGradient id="linear-gradient-3" x1="460.36" y1="356" x2="611.19" y2="356" gradientTransform="matrix(1, 0, 0, 1, 0, 0)" xlink:href="#linear-gradient"/><linearGradient id="linear-gradient-5" x1="461.36" y1="347.03" x2="612.19" y2="347.03" gradientTransform="matrix(1, 0, 0, 1, 0, 0)" xlink:href="#linear-gradient"/></defs><title>atomicDeFi_Horizontal_Light</title><path class="cls-1" d="M89.23,335.83a6.44,6.44,0,1,1,6.44,6.44,6.44,6.44,0,0,1-6.44-6.44ZM87,374A98.71,98.71,0,0,1,73.14,360,118,118,0,0,1,87,346.93a2.46,2.46,0,0,0-3.12-3.8A124.47,124.47,0,0,0,70.19,356c-4.24-6.43-5.61-12-3.61-15.51s7.44-5.09,15.35-4.63a2.46,2.46,0,0,0,.29-4.91c-10-.59-16.89,1.85-19.9,7.07-1.91,3.29-3,9.19,2.45,18.55.63,1.08,1.34,2.19,2.12,3.3-7.62,9.59-10.19,17.87-6.92,23.53,2.46,4.26,7.78,6.46,15.61,6.46a58.51,58.51,0,0,0,8.66-.74,2.46,2.46,0,0,0-.76-4.86c-10.09,1.57-17.09.37-19.21-3.3-1.83-3.17-.32-9.12,5.72-17a104.62,104.62,0,0,0,13.88,13.8,2.54,2.54,0,0,0,1.57.57A2.46,2.46,0,0,0,87,374Zm7.14-26.87h0a2.46,2.46,0,0,0-2.46,2.46V350c0,6.69.32,13.32.94,19.69a2.45,2.45,0,0,0,2.44,2.23h.24a2.47,2.47,0,0,0,2.26-2.65v0a183.3,183.3,0,0,1-1-19.23v-.45A2.45,2.45,0,0,0,94.16,347.08ZM131.1,366a203.11,203.11,0,0,1-21.73,10.51,2.46,2.46,0,1,0,1.85,4.56,206.55,206.55,0,0,0,22.27-10.77,2.46,2.46,0,0,0-2.39-4.3Zm56.34-56.17c-3.7-6.42-13.67-8.1-28.83-4.85A123.92,123.92,0,0,0,142,309.83a109.74,109.74,0,0,0-3.61-12.47c-5.09-14.09-11.81-21.53-19.45-21.53-13.67,0-22,23.67-25.26,45.82a2.46,2.46,0,0,0,4.87.72h0c3.59-24.54,12-41.62,20.39-41.62,5.23,0,10.63,6.66,14.82,18.27a105,105,0,0,1,3.6,12.58A205.2,205.2,0,0,0,111,324.52c-1.45.83-2.94,1.72-4.43,2.62a2.46,2.46,0,0,0,2.55,4.21h0c1.46-.89,2.92-1.76,4.34-2.57a198.74,198.74,0,0,1,24.93-12.28,183.44,183.44,0,0,1,2.88,30.14,2.46,2.46,0,0,0,2.46,2.42h0a2.47,2.47,0,0,0,2.42-2.5h0A187.37,187.37,0,0,0,143,314.68c21.1-7.8,36.75-8.35,40.15-2.45,1.86,3.23.22,8.73-4.62,15.49-5.26,7.34-13.74,15.46-24.53,23.5a2.46,2.46,0,0,0,1.48,4.43,2.41,2.41,0,0,0,1.46-.48c11.19-8.34,20-16.84,25.59-24.57C186.83,324.64,191.14,316.19,187.44,309.83Zm-30.37,56a2.46,2.46,0,0,0-3.21,3.73c15.06,13,22.71,25.94,19,32.3-2.54,4.39-10.52,5.78-21.89,3.83a94.91,94.91,0,0,1-12.56-3.14,132.52,132.52,0,0,0,6.29-28.08,2.46,2.46,0,0,0-4.88-.6,127.46,127.46,0,0,1-6,27.06,158.33,158.33,0,0,1-24.43-11.52,2.46,2.46,0,0,0-2.46,4.26A163.93,163.93,0,0,0,132,405.5c-.27.6-.54,1.19-.81,1.75-3.73,7.75-8.07,12-12.21,12-6,0-12.15-8.72-16.48-23.33a2.46,2.46,0,0,0-4.8,1.1,1.9,1.9,0,0,0,.09.29c5.12,17.33,12.65,26.86,21.19,26.86,6.22,0,12-5.11,16.64-14.78.36-.74.7-1.5,1-2.28a101.61,101.61,0,0,0,13.54,3.41,58.5,58.5,0,0,0,9.89.92c8.45,0,14.39-2.44,17.11-7.14C182.27,395.43,174.77,381,157.07,365.83ZM134.26,349.6l-1.56-.92a165.92,165.92,0,0,0-23-11.06,2.46,2.46,0,0,0-1.77,4.59A160.55,160.55,0,0,1,130.24,353l1.51.89a2.6,2.6,0,0,0,1.25.34,2.46,2.46,0,0,0,1.26-4.58Zm-30.68,33.52a6.43,6.43,0,1,0-6.43,6.43,6.43,6.43,0,0,0,6.43-6.43Zm46.58-22.71a6.44,6.44,0,1,0-6.46,6.41h0A6.44,6.44,0,0,0,150.16,360.41Z"/><path class="cls-2" d="M263.72,343.36v20.92a4.1,4.1,0,0,0,1.06,3.16,5.16,5.16,0,0,0,3.55,1h5.07v9.21h-6.87q-13.81,0-13.82-13.43V343.36h-5.15v-9h5.15v-10.7h11v10.7h9.68v9Z"/><path class="cls-2" d="M285.57,375.56a19.93,19.93,0,0,1-7.85-7.84A23.55,23.55,0,0,1,274.87,356a23.06,23.06,0,0,1,2.93-11.71,20.3,20.3,0,0,1,8-7.84,24.44,24.44,0,0,1,22.64,0,20.26,20.26,0,0,1,8,7.84A23.06,23.06,0,0,1,319.38,356a22.62,22.62,0,0,1-3,11.72,20.74,20.74,0,0,1-8.12,7.84,23.58,23.58,0,0,1-11.44,2.77A22.75,22.75,0,0,1,285.57,375.56Zm16.82-8.2a10.41,10.41,0,0,0,4.18-4.33,14.61,14.61,0,0,0,1.56-7q0-6.17-3.24-9.48A10.66,10.66,0,0,0,297,343.2a10.41,10.41,0,0,0-7.85,3.32Q286,349.84,286,356t3.08,9.49a10.18,10.18,0,0,0,7.77,3.32A11.28,11.28,0,0,0,302.39,367.36Z"/><path class="cls-2" d="M389.29,338.63q4.88,4.89,4.88,13.63v25.37H383.24V353.74q0-5.07-2.57-7.77a9.29,9.29,0,0,0-7-2.69,9.43,9.43,0,0,0-7.07,2.69q-2.61,2.7-2.61,7.77v23.89H353V353.74q0-5.07-2.58-7.77a9.29,9.29,0,0,0-7-2.69,9.5,9.5,0,0,0-7.14,2.69q-2.62,2.7-2.62,7.77v23.89H322.73V334.38h10.93v5.23a14.74,14.74,0,0,1,5.43-4.3,16.92,16.92,0,0,1,7.3-1.56,18.83,18.83,0,0,1,9.06,2.15,15.06,15.06,0,0,1,6.17,6.13,15.59,15.59,0,0,1,6.12-6,17.47,17.47,0,0,1,8.71-2.27Q384.42,333.75,389.29,338.63Z"/><path class="cls-2" d="M400.61,327.39a6.42,6.42,0,0,1,0-9.14,7.22,7.22,0,0,1,9.61,0,6.42,6.42,0,0,1,0,9.14,7.22,7.22,0,0,1-9.61,0Zm10.19,7v43.25H399.87V334.38Z"/><path class="cls-2" d="M417.81,344.25a19.56,19.56,0,0,1,7.58-7.8,21.86,21.86,0,0,1,11.08-2.78q8,0,13.32,4A19.59,19.59,0,0,1,456.85,349H445.06a8.55,8.55,0,0,0-3.16-4.41,9.15,9.15,0,0,0-5.5-1.6,9,9,0,0,0-7.42,3.39q-2.73,3.4-2.73,9.64c0,4.12.91,7.3,2.73,9.57A9,9,0,0,0,436.4,369q6.63,0,8.66-5.93h11.79a19.9,19.9,0,0,1-7.1,11.17q-5.31,4.14-13.28,4.13a21.86,21.86,0,0,1-11.08-2.77,19.52,19.52,0,0,1-7.58-7.81,26.65,26.65,0,0,1,0-23.5Z"/><path class="cls-3" d="M496.37,326.49a24,24,0,0,1,10.07,9.57,28.45,28.45,0,0,1,3.55,14.4,28.05,28.05,0,0,1-3.55,14.33,24.08,24.08,0,0,1-10.07,9.48,32.54,32.54,0,0,1-15.11,3.36H462.21v-54.5h19.05A32.54,32.54,0,0,1,496.37,326.49Zm-2.23,37.17q4.69-4.7,4.69-13.2t-4.69-13.31q-4.68-4.8-13.27-4.8h-7.73v36h7.73Q489.47,368.34,494.14,363.66Z"/><path class="cls-4" d="M555.37,359.28H523.75a10.72,10.72,0,0,0,3.28,7.34,10.09,10.09,0,0,0,7.1,2.66,8.94,8.94,0,0,0,8.67-5.23h11.79a19.69,19.69,0,0,1-7.18,10.26,20.92,20.92,0,0,1-13,4,22.56,22.56,0,0,1-11.21-2.77,19.51,19.51,0,0,1-7.73-7.84A24.17,24.17,0,0,1,512.66,356a24.44,24.44,0,0,1,2.74-11.79,19,19,0,0,1,7.65-7.8,24.52,24.52,0,0,1,22.37-.08,18.73,18.73,0,0,1,7.57,7.53,22.78,22.78,0,0,1,2.69,11.21A25.56,25.56,0,0,1,555.37,359.28Zm-11-7.34a8.67,8.67,0,0,0-3-6.75,10.8,10.8,0,0,0-7.26-2.54,9.94,9.94,0,0,0-6.84,2.46,10.82,10.82,0,0,0-3.39,6.83Z"/><path class="cls-3" d="M594.18,323.13V332H571.46v14h17.41v8.67H571.46v23H560.52v-54.5Z"/><path class="cls-5" d="M600.52,327.39a6.42,6.42,0,0,1,0-9.14,7.22,7.22,0,0,1,9.61,0,6.42,6.42,0,0,1,0,9.14,7.22,7.22,0,0,1-9.61,0Zm10.19,7v43.25H599.78V334.38Z"/><path class="cls-2" d="M200.58,344.21a19.16,19.16,0,0,1,7.11-7.8,18.91,18.91,0,0,1,10-2.74,17.63,17.63,0,0,1,8.47,2,17.28,17.28,0,0,1,5.82,4.91v-6.16h11v43.25H232v-6.32a16.25,16.25,0,0,1-5.82,5,17.75,17.75,0,0,1-8.55,2,18.31,18.31,0,0,1-9.95-2.81,19.63,19.63,0,0,1-7.11-7.92A25.51,25.51,0,0,1,198,355.85,25.13,25.13,0,0,1,200.58,344.21Zm29.87,5a11,11,0,0,0-4.22-4.37,11.32,11.32,0,0,0-5.7-1.52,11.06,11.06,0,0,0-5.62,1.48,11.18,11.18,0,0,0-4.18,4.33,13.6,13.6,0,0,0-1.6,6.76,14,14,0,0,0,1.6,6.83,11.52,11.52,0,0,0,4.22,4.49,10.69,10.69,0,0,0,5.58,1.56,11.32,11.32,0,0,0,5.7-1.52,11.1,11.1,0,0,0,4.22-4.37,15.75,15.75,0,0,0,0-13.67Z"/></svg>