<svg width="96" height="24" viewBox="0 0 96 24" fill="none" xmlns="http://www.w3.org/2000/svg">
<g id="logo_komodo-wallet">
<path id="komodo-wallet" fill-rule="evenodd" clip-rule="evenodd" d="M3.55544 20.3514C5.83195 22.5871 8.91955 23.8431 12.139 23.8431C15.3585 23.8431 18.4461 22.5871 20.7226 20.3514C22.9991 18.1157 24.278 15.0834 24.278 11.9216C24.277 10.9886 24.1662 10.059 23.9479 9.151C23.868 8.82091 23.6579 8.53548 23.3638 8.35752C23.0697 8.17955 22.7156 8.12363 22.3795 8.20204C22.0434 8.28045 21.7528 8.48678 21.5716 8.77564C21.4818 8.91866 21.4217 9.07765 21.3945 9.24351C21.3673 9.40937 21.3737 9.57886 21.4132 9.74231C21.8969 11.7262 21.7078 13.8109 20.8747 15.6795C20.0416 17.5482 18.61 19.0986 16.7976 20.0952C14.9851 21.0917 12.8909 21.4798 10.8334 21.2005C8.77577 20.9212 6.86729 19.9898 5.39802 18.5479C3.92875 17.1059 2.97903 15.2323 2.69324 13.2117C2.40745 11.1912 2.80121 9.13426 3.81466 7.3536C4.82811 5.57295 6.40584 4.16594 8.30802 3.34647C10.2102 2.52699 12.3328 2.33985 14.3532 2.81349C14.6893 2.8919 15.0434 2.83598 15.3375 2.65801C15.6316 2.48005 15.8417 2.19463 15.9215 1.86453C16.0014 1.53444 15.9444 1.18672 15.7632 0.897865C15.582 0.609009 15.2914 0.402679 14.9553 0.324267C14.0324 0.109868 13.0874 0.00105523 12.139 0C8.91955 0 5.83195 1.25602 3.55544 3.49175C1.27893 5.72747 0 8.75977 0 11.9216C0 15.0834 1.27893 18.1157 3.55544 20.3514ZM19.6461 2.6451C20.1592 2.6451 20.6515 2.84451 21.0154 3.19977C21.3431 3.51783 21.5449 3.93992 21.5849 4.39065C21.625 4.84139 21.5005 5.29142 21.2339 5.66038C21.1716 5.74741 21.1035 5.83026 21.03 5.90835C20.7116 6.22035 20.2929 6.41418 19.8452 6.45674H19.6073H19.5296C19.034 6.49681 18.553 6.64125 18.1193 6.88025C17.6857 7.11925 17.3095 7.4472 17.0165 7.84177C16.7235 8.23634 16.5204 8.68827 16.4212 9.16682C16.3219 9.64537 16.3288 10.1393 16.4414 10.615V10.6531C16.4596 10.7338 16.4822 10.8134 16.5094 10.8916C16.6528 11.4986 16.6638 12.1285 16.5416 12.74C16.4194 13.3515 16.1668 13.9307 15.8005 14.4394C15.6563 14.6529 15.4939 14.8539 15.3149 15.0403C14.4721 15.868 13.3289 16.3331 12.1369 16.3331C10.9449 16.3331 9.80178 15.868 8.95892 15.0403C8.11606 14.2125 7.64255 13.0898 7.64255 11.9192C7.64255 10.7486 8.11606 9.6259 8.95892 8.79814L9.09488 8.67892C9.90523 7.93992 10.9656 7.522 12.0714 7.50584C12.4491 7.49938 12.8262 7.54105 13.193 7.62983L13.4746 7.70135C13.9549 7.81243 14.4538 7.82141 14.9379 7.72769C15.422 7.63397 15.8801 7.43972 16.2815 7.15794C16.6829 6.87617 17.0183 6.51338 17.2653 6.09391C17.5123 5.67443 17.6651 5.20795 17.7136 4.72573V4.58744V4.38239C17.7549 3.96059 17.9357 3.56366 18.2283 3.25223C18.2457 3.23585 18.2619 3.21832 18.2768 3.19977C18.6407 2.84451 19.133 2.6451 19.6461 2.6451ZM44.2443 4.2773C43.0623 4.27816 41.9273 4.73222 41.0811 5.54276C40.2349 6.35331 39.7444 7.45628 39.714 8.61676C39.714 11.1727 41.5737 12.9562 44.2443 12.9562C45.4272 12.9566 46.5634 12.5031 47.4106 11.6924C48.2579 10.8817 48.7491 9.77805 48.7795 8.61676C48.7795 6.06077 46.9149 4.2773 44.2443 4.2773ZM46.1283 8.61676C46.1425 8.86604 46.1039 9.1155 46.015 9.34942C45.9261 9.58333 45.7888 9.79661 45.6118 9.97583C45.4348 10.155 45.2219 10.2963 44.9865 10.3907C44.7512 10.4851 44.4985 10.5305 44.2443 10.5242C43.991 10.5277 43.7395 10.4803 43.5055 10.3849C43.2715 10.2896 43.0597 10.1483 42.8833 9.96964C42.7069 9.79102 42.5695 9.57888 42.4796 9.34624C42.3896 9.11359 42.3491 8.86535 42.3603 8.61676C42.3462 8.36747 42.3848 8.11801 42.4736 7.88409C42.5625 7.65018 42.6998 7.43689 42.8768 7.25768C43.0538 7.07847 43.2667 6.93722 43.5021 6.84284C43.7375 6.74845 43.9902 6.70299 44.2443 6.7093C44.4993 6.70005 44.7533 6.74351 44.9901 6.83687C45.2268 6.93023 45.4409 7.07141 45.6186 7.25125C45.7962 7.43109 45.9334 7.64558 46.0212 7.88081C46.109 8.11605 46.1455 8.36678 46.1283 8.61676ZM57.7763 5.48848C58.6419 4.71276 59.7704 4.28102 60.9422 4.27725C63.5885 4.27725 65.4385 6.06071 65.4239 8.63577V12.403C65.4227 12.5059 65.3801 12.6041 65.3056 12.6764C65.2311 12.7487 65.1305 12.7893 65.0258 12.7892H63.1661C63.0618 12.7892 62.9617 12.7486 62.888 12.6761C62.8142 12.6037 62.7728 12.5054 62.7728 12.403V8.63577C62.7869 8.38649 62.7484 8.13702 62.6595 7.90311C62.5706 7.6692 62.4333 7.45591 62.2563 7.2767C62.0793 7.09749 61.8664 6.95623 61.631 6.86185C61.3957 6.76747 61.1429 6.722 60.8888 6.72832C60.6338 6.71907 60.3798 6.76253 60.143 6.85589C59.9063 6.94925 59.6922 7.09042 59.5145 7.27026C59.3369 7.4501 59.1997 7.66459 59.1119 7.89983C59.0241 8.13506 58.9876 8.3858 59.0048 8.63577V12.403C59.0048 12.5054 58.9634 12.6037 58.8896 12.6761C58.8159 12.7486 58.7158 12.7892 58.6115 12.7892H56.7761C56.6718 12.7892 56.5717 12.7486 56.498 12.6761C56.4242 12.6037 56.3828 12.5054 56.3828 12.403V8.63577C56.4 8.3858 56.3635 8.13506 56.2757 7.89983C56.1878 7.66459 56.0507 7.4501 55.8731 7.27026C55.6954 7.09042 55.4813 6.94925 55.2446 6.85589C55.0078 6.76253 54.7537 6.71907 54.4988 6.72832C54.2447 6.722 53.9919 6.76747 53.7566 6.86185C53.5212 6.95623 53.3083 7.09749 53.1313 7.2767C52.9543 7.45591 52.817 7.6692 52.7281 7.90311C52.6392 8.13702 52.6007 8.38649 52.6148 8.63577V12.403C52.6148 12.5054 52.5734 12.6037 52.4996 12.6761C52.4259 12.7486 52.3258 12.7892 52.2215 12.7892H50.357C50.3024 12.7913 50.2481 12.7822 50.1973 12.7625C50.1465 12.7428 50.1005 12.7129 50.0622 12.6748C50.0238 12.6367 49.9939 12.5911 49.9745 12.541C49.955 12.491 49.9464 12.4374 49.9491 12.3839V8.6167C49.9491 5.93673 52.3235 4.27725 54.5231 4.27725C55.7281 4.24176 56.8981 4.67739 57.7763 5.48848ZM71.1441 4.2773C69.9616 4.27813 68.8261 4.73203 67.9791 5.54245C67.1321 6.35287 66.6406 7.45585 66.6089 8.61676C66.6089 11.1727 68.4735 12.9562 71.1441 12.9562C72.3265 12.9566 73.4622 12.5029 74.3086 11.6921C75.1551 10.8813 75.6452 9.77763 75.6744 8.61676C75.6744 6.06077 73.8098 4.2773 71.1441 4.2773ZM73.0281 8.61676C73.0422 8.86604 73.0037 9.1155 72.9148 9.34942C72.8259 9.58333 72.6886 9.79661 72.5116 9.97583C72.3346 10.155 72.1217 10.2963 71.8863 10.3907C71.651 10.4851 71.3982 10.5305 71.1441 10.5242C70.6811 10.4594 70.2575 10.2328 69.951 9.88585C69.6446 9.53895 69.4758 9.0951 69.4758 8.63583C69.4758 8.17656 69.6446 7.73271 69.951 7.38581C70.2575 7.0389 70.6811 6.81224 71.1441 6.74745C71.3956 6.73863 71.6462 6.78109 71.8801 6.87216C72.1141 6.96323 72.3262 7.10093 72.5033 7.27658C72.6803 7.45222 72.8183 7.662 72.9086 7.89266C72.999 8.12333 73.0396 8.36988 73.0281 8.61676ZM81.4241 4.27245C82.0429 4.29442 82.6481 4.45769 83.1915 4.74931V0.571995C83.1915 0.475432 83.2302 0.382753 83.2993 0.314028C83.3684 0.245303 83.4622 0.206064 83.5605 0.20481H85.4688C85.5671 0.206064 85.661 0.245303 85.73 0.314028C85.7991 0.382753 85.8378 0.475432 85.8378 0.571995V8.60713C85.8087 9.768 85.3185 10.8717 84.4721 11.6825C83.6256 12.4933 82.4899 12.9469 81.3075 12.9466C78.637 12.9466 76.7724 11.1631 76.7724 8.60713C76.7804 8.02025 76.9079 7.44088 77.1475 6.90318C77.3871 6.36548 77.7339 5.88033 78.1674 5.47634C78.6009 5.07235 79.1124 4.7577 79.6718 4.55093C80.2311 4.34417 80.8269 4.24948 81.4241 4.27245ZM83.0782 9.34933C83.1671 9.11542 83.2057 8.86595 83.1915 8.61667C83.2031 8.36979 83.1624 8.12324 83.0721 7.89258C82.9818 7.66191 82.8437 7.45213 82.6667 7.27649C82.4897 7.10084 82.2775 6.96314 82.0436 6.87207C81.8096 6.781 81.559 6.73854 81.3075 6.74737C80.8446 6.81215 80.4209 7.03882 80.1145 7.38572C79.808 7.73262 79.6393 8.17647 79.6393 8.63574C79.6393 9.09501 79.808 9.53886 80.1145 9.88576C80.4209 10.2327 80.8446 10.4593 81.3075 10.5241C81.5617 10.5304 81.8144 10.485 82.0498 10.3906C82.2851 10.2962 82.498 10.155 82.675 9.97574C82.852 9.79653 82.9893 9.58324 83.0782 9.34933ZM91.4697 4.2773C90.2872 4.27813 89.1517 4.73203 88.3047 5.54245C87.4578 6.35287 86.9662 7.45585 86.9346 8.61676C86.9346 11.1727 88.7991 12.9562 91.4697 12.9562C92.6521 12.9566 93.7878 12.5029 94.6343 11.6921C95.4807 10.8813 95.9708 9.77763 96 8.61676C96 6.06077 94.1354 4.2773 91.4697 4.2773ZM93.3537 8.61676C93.3679 8.86604 93.3293 9.1155 93.2404 9.34942C93.1515 9.58333 93.0142 9.79661 92.8372 9.97583C92.6602 10.155 92.4473 10.2963 92.212 10.3907C91.9766 10.4851 91.7239 10.5305 91.4697 10.5242C91.2164 10.5277 90.9649 10.4803 90.7309 10.3849C90.4969 10.2896 90.2851 10.1483 90.1087 9.96964C89.9323 9.79102 89.7949 9.57888 89.705 9.34624C89.615 9.11359 89.5745 8.86535 89.5857 8.61676C89.5716 8.36747 89.6102 8.11801 89.699 7.88409C89.7879 7.65018 89.9252 7.43689 90.1022 7.25768C90.2792 7.07847 90.4921 6.93722 90.7275 6.84284C90.9628 6.74845 91.2156 6.70299 91.4697 6.7093C91.7247 6.70005 91.9787 6.74351 92.2155 6.83687C92.4522 6.93023 92.6663 7.07141 92.844 7.25125C93.0216 7.43109 93.1588 7.64558 93.2466 7.88081C93.3344 8.11605 93.3709 8.36678 93.3537 8.61676ZM36.762 4.27722H39.6026C39.6572 4.28057 39.7099 4.29874 39.7546 4.32971C39.7994 4.36067 39.8346 4.40322 39.8562 4.45263C39.8778 4.50204 39.8851 4.55637 39.8772 4.60958C39.8693 4.6628 39.8465 4.71282 39.8114 4.75408L36.7038 7.81077C36.6531 7.85937 36.6223 7.92441 36.6169 7.99374C36.6115 8.06307 36.6321 8.13194 36.6746 8.18749L39.8551 12.4793C39.892 12.5227 39.9152 12.5758 39.9219 12.632C39.9285 12.6882 39.9183 12.7451 39.8926 12.7957C39.8668 12.8463 39.8266 12.8885 39.7768 12.917C39.727 12.9454 39.6698 12.9591 39.6123 12.9561H37.1359C37.0888 12.9563 37.0422 12.9456 37.0001 12.9249C36.9579 12.9042 36.9213 12.8741 36.8931 12.8369L34.8684 10.114C34.8435 10.0794 34.8112 10.0504 34.7738 10.0293C34.7363 10.0082 34.6946 9.99537 34.6516 9.99174C34.6086 9.98811 34.5653 9.99375 34.5247 10.0083C34.4842 10.0228 34.4473 10.0459 34.4168 10.0759L33.6108 10.8722C33.5825 10.8986 33.5602 10.9305 33.5452 10.9658C33.5301 11.001 33.5227 11.039 33.5234 11.0773V12.6652C33.5234 12.7038 33.5155 12.7421 33.5004 12.7777C33.4852 12.8133 33.4629 12.8456 33.4349 12.8726C33.4069 12.8997 33.3736 12.921 33.3371 12.9354C33.3006 12.9497 33.2616 12.9568 33.2223 12.9561H31.1732C31.1339 12.9568 31.0949 12.9497 31.0584 12.9354C31.0219 12.921 30.9887 12.8997 30.9607 12.8726C30.9326 12.8456 30.9104 12.8133 30.8952 12.7777C30.88 12.7421 30.8722 12.7038 30.8722 12.6652V0.500465C30.8722 0.461639 30.88 0.423193 30.8951 0.387323C30.9102 0.351452 30.9324 0.31886 30.9604 0.291405C30.9883 0.263951 31.0215 0.242174 31.058 0.227316C31.0946 0.212458 31.1337 0.20481 31.1732 0.20481H33.2369C33.2764 0.20481 33.3156 0.212458 33.3521 0.227316C33.3886 0.242174 33.4218 0.263951 33.4497 0.291405C33.4777 0.31886 33.4999 0.351452 33.515 0.387323C33.5301 0.423193 33.5379 0.461639 33.5379 0.500465V6.64246C33.5413 6.69613 33.5598 6.74783 33.5914 6.7918C33.6229 6.83577 33.6662 6.8703 33.7165 6.89154C33.7668 6.91279 33.8222 6.91992 33.8763 6.91214C33.9305 6.90437 33.9815 6.882 34.0235 6.84751L36.5484 4.36305C36.6065 4.30976 36.6825 4.27922 36.762 4.27722Z" fill="#252525"/>
<g id="wallet">
<path d="M32.2138 22.4315L30.5679 16.6133H31.5096L32.6658 21.119H32.7209L33.9234 16.6133H34.8565L36.0591 21.1218H36.1141L37.2674 16.6133H38.2121L36.5633 22.4315H35.6621L34.4132 18.0735H34.3668L33.1179 22.4315H32.2138Z" fill="#252525"/>
<path d="M39.0198 22.4315H38.0694L40.205 16.6133H41.2395L43.3751 22.4315H42.4246L40.7469 17.6701H40.7005L39.0198 22.4315ZM39.1792 20.1531H42.2624V20.8917H39.1792V20.1531Z" fill="#252525"/>
<path d="M44.2321 22.4315V16.6133H45.1275V21.6758H47.8166V22.4315H44.2321Z" fill="#252525"/>
<path d="M48.838 22.4315V16.6133H49.7334V21.6758H52.4225V22.4315H48.838Z" fill="#252525"/>
<path d="M53.444 22.4315V16.6133H57.1647V17.369H54.3394V19.1417H56.9705V19.8945H54.3394V21.6758H57.1994V22.4315H53.444Z" fill="#252525"/>
<path d="M58.068 17.369V16.6133H62.6609V17.369H60.8093V22.4315H59.9168V17.369H58.068Z" fill="#252525"/>
</g>
</g>
</svg>
