<svg width="112" height="32" viewBox="0 0 112 32" fill="none" xmlns="http://www.w3.org/2000/svg">
<g id="logo-adex">
<path id="sign" d="M6.61991 12.9366C6.61991 12.6618 6.70151 12.3933 6.85438 12.1648C7.00726 11.9364 7.22454 11.7584 7.47873 11.6534C7.73292 11.5483 8.0126 11.5209 8.28238 11.5747C8.55216 11.6284 8.79992 11.7609 8.99431 11.9553C9.1887 12.1497 9.32098 12.3973 9.37441 12.6668C9.42785 12.9363 9.40004 13.2156 9.2945 13.4693C9.18897 13.7231 9.01045 13.9398 8.78153 14.0922C8.55261 14.2446 8.28358 14.3257 8.00849 14.3253C7.64004 14.3248 7.28685 14.1783 7.0265 13.9179C6.76614 13.6575 6.61991 13.3046 6.61991 12.9366ZM6.143 21.1618C5.04593 20.2626 4.04179 19.2558 3.14559 18.1567C4.06342 17.1385 5.06057 16.1944 6.12768 15.3334C6.18151 15.2892 6.22609 15.2348 6.25887 15.1734C6.29166 15.112 6.31201 15.0447 6.31877 14.9754C6.32553 14.9062 6.31856 14.8362 6.29826 14.7696C6.27796 14.7031 6.24473 14.6411 6.20046 14.5874C6.15619 14.5336 6.10176 14.4891 6.04026 14.4563C5.97877 14.4236 5.91142 14.4033 5.84206 14.3965C5.77269 14.3898 5.70268 14.3967 5.63601 14.417C5.56934 14.4373 5.50733 14.4705 5.4535 14.5147C4.40486 15.3638 3.42029 16.2889 2.5078 17.2826C1.59229 15.8938 1.28393 14.7021 1.72828 13.937C2.17262 13.1719 3.33328 12.839 5.04172 12.9404C5.18153 12.9477 5.31855 12.8994 5.42291 12.8062C5.52727 12.713 5.59051 12.5824 5.59885 12.4428C5.60719 12.3032 5.55995 12.166 5.46743 12.0611C5.37491 11.9562 5.24461 11.892 5.10492 11.8826C2.94448 11.7544 1.46588 12.2805 0.807028 13.4129C0.397157 14.1245 0.153916 15.3965 1.33756 17.4146C1.47355 17.6479 1.62677 17.887 1.79531 18.128C0.150085 20.1939 -0.405346 21.9805 0.299478 23.199C0.831926 24.1191 1.97918 24.5877 3.66271 24.5877C4.28963 24.5833 4.91526 24.5302 5.53394 24.429C5.67313 24.4071 5.79793 24.331 5.8809 24.2173C5.96387 24.1036 5.99822 23.9616 5.97637 23.8226C5.95453 23.6836 5.87829 23.5589 5.76443 23.4761C5.65057 23.3932 5.50841 23.3589 5.36923 23.3807C3.18964 23.7212 1.67848 23.4611 1.22073 22.6691C0.824265 21.9843 1.15178 20.7027 2.45608 19.0003C3.36208 20.0861 4.36819 21.0845 5.46116 21.9824C5.55638 22.063 5.67725 22.1071 5.80208 22.1068C5.91131 22.1071 6.01799 22.0738 6.10755 22.0113C6.19711 21.9489 6.26519 21.8604 6.30249 21.7578C6.33978 21.6553 6.34448 21.5437 6.31593 21.4384C6.28739 21.3331 6.227 21.2392 6.143 21.1695V21.1618ZM7.68481 15.3659C7.6149 15.3654 7.5456 15.3787 7.48089 15.4052C7.41619 15.4316 7.35738 15.4706 7.30786 15.5198C7.25834 15.5691 7.2191 15.6277 7.19241 15.6922C7.16572 15.7568 7.1521 15.8259 7.15236 15.8958V15.9971C7.15236 17.4394 7.22131 18.8664 7.35538 20.2456C7.3682 20.3768 7.42939 20.4986 7.52707 20.5873C7.62476 20.6761 7.75196 20.7254 7.884 20.7257H7.93571C8.07468 20.7116 8.20255 20.6436 8.29177 20.5362C8.38098 20.4289 8.42438 20.2908 8.41261 20.1518C8.28237 18.8128 8.22109 17.4126 8.22109 16.0048V15.9072C8.22264 15.8363 8.20985 15.7658 8.1835 15.6999C8.15715 15.634 8.11777 15.5741 8.06771 15.5237C8.01765 15.4734 7.95795 15.4336 7.89216 15.4068C7.82637 15.38 7.75584 15.3668 7.68481 15.3678V15.3659ZM15.66 19.446C14.1431 20.2953 12.5761 21.0523 10.9676 21.7127C10.8538 21.7596 10.7598 21.8444 10.7015 21.9527C10.6433 22.061 10.6244 22.1861 10.6481 22.3067C10.6718 22.4274 10.7367 22.5361 10.8316 22.6144C10.9265 22.6926 11.0456 22.7357 11.1687 22.7361C11.2377 22.7357 11.306 22.7221 11.3698 22.6959C13.0175 22.0189 14.6228 21.2435 16.1772 20.3737C16.292 20.301 16.3746 20.1872 16.4081 20.0556C16.4415 19.924 16.4233 19.7846 16.3572 19.666C16.2911 19.5474 16.182 19.4585 16.0524 19.4176C15.9228 19.3767 15.7824 19.3868 15.66 19.446ZM27.8374 7.32046C27.0368 5.93747 24.886 5.57595 21.6127 6.27605C20.3939 6.54442 19.1952 6.89724 18.0254 7.33194C17.8194 6.41993 17.5585 5.52117 17.244 4.64056C16.1369 1.60488 14.6852 0 13.0361 0C10.0827 0 8.28237 5.10539 7.57946 9.88367C7.55915 10.0229 7.59505 10.1646 7.67928 10.2774C7.76351 10.3902 7.88916 10.465 8.0286 10.4853C8.16804 10.5056 8.30983 10.4697 8.4228 10.3856C8.53576 10.3015 8.61064 10.176 8.63096 10.0367C9.40664 4.75151 11.2185 1.06163 13.0361 1.06163C14.1642 1.06163 15.3344 2.49818 16.2365 5.00209C16.5517 5.88927 16.8114 6.79516 17.0141 7.71451C15.0503 8.50625 13.1455 9.43699 11.3143 10.4996C11.0002 10.6909 10.6784 10.8707 10.3566 11.0735C10.297 11.1096 10.2451 11.1572 10.2039 11.2134C10.1627 11.2696 10.133 11.3333 10.1164 11.401C10.0999 11.4687 10.0969 11.539 10.1075 11.6078C10.1182 11.6767 10.1423 11.7427 10.1785 11.8023C10.2147 11.8618 10.2623 11.9136 10.3186 11.9548C10.3749 11.9959 10.4387 12.0256 10.5065 12.0421C10.5742 12.0587 10.6446 12.0617 10.7135 12.0511C10.7825 12.0404 10.8486 12.0163 10.9082 11.9802C11.2242 11.7889 11.5384 11.5976 11.8448 11.4254C13.577 10.4197 15.3765 9.53455 17.2306 8.77614C17.6169 10.9232 17.8245 13.0985 17.8511 15.2798C17.8531 15.419 17.9099 15.5518 18.0092 15.6495C18.1085 15.7473 18.2423 15.802 18.3817 15.802H18.3912C18.532 15.799 18.6658 15.7407 18.7637 15.6397C18.8616 15.5387 18.9157 15.4032 18.9141 15.2626C18.8859 12.9565 18.659 10.657 18.2361 8.38974C22.7945 6.70644 26.173 6.58784 26.9085 7.85988C27.3107 8.55616 26.9564 9.74404 25.9106 11.2016C24.773 12.7759 22.9439 14.5376 20.6149 16.2592C20.5589 16.3008 20.5117 16.3529 20.4759 16.4127C20.4402 16.4725 20.4165 16.5388 20.4064 16.6077C20.3962 16.6766 20.3998 16.7469 20.4168 16.8144C20.4339 16.882 20.4641 16.9455 20.5057 17.0014C20.5473 17.0573 20.5996 17.1044 20.6594 17.1402C20.7193 17.1759 20.7857 17.1995 20.8547 17.2096C20.9237 17.2197 20.994 17.2162 21.0616 17.1992C21.1293 17.1821 21.1929 17.152 21.2488 17.1104C23.6659 15.3123 25.5755 13.476 26.7725 11.8099C27.6957 10.5207 28.6265 8.70345 27.8374 7.32046ZM21.2795 19.4077C21.1728 19.3159 21.034 19.2702 20.8935 19.2806C20.7531 19.291 20.6225 19.3567 20.5306 19.4632C20.4387 19.5697 20.3929 19.7084 20.4033 19.8487C20.4137 19.9889 20.4795 20.1193 20.5861 20.2111C23.8421 23.0058 25.4893 25.8062 24.6963 27.1777C24.1486 28.1341 22.4248 28.4268 19.9675 28.0041C19.0489 27.8406 18.1427 27.6137 17.2555 27.325C17.9276 25.3624 18.3829 23.3323 18.6134 21.2708C18.6307 21.1313 18.5918 20.9907 18.5052 20.8798C18.4186 20.769 18.2915 20.697 18.1518 20.6798C18.0121 20.6625 17.8713 20.7014 17.7603 20.7879C17.6493 20.8743 17.5773 21.0013 17.56 21.1408C17.3379 23.1299 16.8986 25.0889 16.2499 26.9826C14.4235 26.3051 12.6582 25.4732 10.9733 24.4959C10.8519 24.4352 10.7117 24.4231 10.5816 24.4621C10.4515 24.5012 10.3413 24.5884 10.2735 24.706C10.2057 24.8236 10.1855 24.9626 10.217 25.0946C10.2484 25.2266 10.3292 25.3415 10.4428 25.416C12.1715 26.418 13.9822 27.2716 15.8554 27.9677C15.7979 28.0978 15.7405 28.224 15.6811 28.3503C14.8767 30.0202 13.9401 30.9384 13.0457 30.9384C11.751 30.9384 10.4198 29.0561 9.48709 25.9038C9.46722 25.8369 9.43436 25.7747 9.3904 25.7205C9.34644 25.6664 9.29224 25.6214 9.23088 25.5882C9.16952 25.555 9.10221 25.5342 9.03279 25.527C8.96338 25.5197 8.89322 25.5262 8.82631 25.5461C8.75941 25.5659 8.69707 25.5987 8.64287 25.6426C8.58866 25.6865 8.54364 25.7407 8.51039 25.8019C8.47713 25.8632 8.45628 25.9304 8.44903 25.9998C8.44179 26.0691 8.44829 26.1392 8.46816 26.206C9.57519 29.9418 11.2013 32 13.0457 32C14.3864 32 15.6313 30.8963 16.6388 28.8113C16.7154 28.6525 16.7901 28.4861 16.8628 28.3178C17.8191 28.6317 18.7964 28.8778 19.7875 29.0542C20.4926 29.1784 21.207 29.2424 21.923 29.2455C23.7464 29.2455 25.0296 28.7195 25.6157 27.7038C26.7131 25.7947 25.0909 22.6921 21.2699 19.4077H21.2795ZM16.3457 15.9111L16.0105 15.7198C14.4215 14.7985 12.7637 14.001 11.0519 13.3344C10.9222 13.2919 10.7811 13.3008 10.6578 13.3592C10.5344 13.4175 10.4383 13.521 10.3891 13.6482C10.3399 13.7753 10.3415 13.9165 10.3936 14.0425C10.4457 14.1685 10.5442 14.2698 10.6688 14.3253C12.329 14.9717 13.9363 15.7462 15.4762 16.6418L15.8018 16.833C15.8832 16.8822 15.9767 16.908 16.0718 16.9076C16.192 16.913 16.3105 16.8774 16.4077 16.8067C16.505 16.736 16.5753 16.6344 16.6072 16.5186C16.639 16.4027 16.6305 16.2795 16.583 16.1691C16.5355 16.0587 16.4518 15.9677 16.3457 15.9111ZM9.72458 23.1454C9.72458 22.8712 9.64314 22.603 9.49056 22.375C9.33799 22.1469 9.12112 21.9692 8.86739 21.8642C8.61366 21.7592 8.33446 21.7318 8.0651 21.7853C7.79574 21.8388 7.54833 21.9709 7.35413 22.1648C7.15993 22.3588 7.02768 22.6059 6.9741 22.8749C6.92052 23.1439 6.94802 23.4227 7.05312 23.6761C7.15822 23.9296 7.3362 24.1461 7.56455 24.2985C7.7929 24.4509 8.06137 24.5322 8.336 24.5322C8.70427 24.5322 9.05747 24.3861 9.31787 24.1261C9.57828 23.866 9.72458 23.5132 9.72458 23.1454ZM19.7779 18.2486C19.7783 17.9738 19.6971 17.7051 19.5445 17.4765C19.3919 17.2479 19.1749 17.0696 18.9209 16.9642C18.6668 16.8588 18.3872 16.831 18.1173 16.8844C17.8475 16.9377 17.5995 17.0698 17.4049 17.264C17.2102 17.4581 17.0776 17.7056 17.0238 17.975C16.97 18.2444 16.9974 18.5238 17.1026 18.7776C17.2078 19.0315 17.386 19.2485 17.6147 19.4012C17.8434 19.5539 18.1123 19.6354 18.3874 19.6354C18.5703 19.6354 18.7515 19.5993 18.9204 19.5293C19.0894 19.4593 19.2428 19.3566 19.372 19.2273C19.5012 19.0979 19.6035 18.9444 19.6732 18.7754C19.7428 18.6065 19.7784 18.4255 19.7779 18.2428V18.2486Z" fill="#A5A5A5"/>
<g id="txt">
<path d="M85.3615 10.8248C88.8119 10.8248 91.3018 13.3877 91.3018 16.5379C91.3018 19.6882 88.8119 22.2511 85.3615 22.2511H81.7186C81.6605 22.2511 81.6049 22.2277 81.5638 22.1859C81.5228 22.1442 81.4998 22.0876 81.4998 22.0286V11.0383C81.4998 10.9793 81.5228 10.9227 81.5638 10.881C81.6049 10.8393 81.6605 10.8159 81.7186 10.8159L85.3615 10.8248ZM83.749 19.7505C83.749 19.8095 83.772 19.8661 83.8131 19.9078C83.8541 19.9495 83.9097 19.973 83.9678 19.973H85.3637C87.451 19.973 88.895 18.5847 88.895 16.5446C88.895 14.5045 87.451 13.1163 85.3637 13.1163H83.9678C83.9097 13.1163 83.8541 13.1397 83.8131 13.1814C83.772 13.2231 83.749 13.2797 83.749 13.3387V19.7505Z" fill="#A5A5A5"/>
<path d="M100.117 11.0392V12.8947C100.117 12.9537 100.094 13.0103 100.053 13.052C100.012 13.0937 99.9559 13.1171 99.8979 13.1171H94.8656C94.8075 13.1171 94.7519 13.1406 94.7109 13.1823C94.6698 13.224 94.6468 13.2806 94.6468 13.3396V14.9503C94.6468 15.0093 94.6698 15.0659 94.7109 15.1077C94.7519 15.1494 94.8075 15.1728 94.8656 15.1728H98.456C98.514 15.1728 98.5697 15.1963 98.6107 15.238C98.6517 15.2797 98.6748 15.3363 98.6748 15.3953V17.2507C98.6748 17.3097 98.6517 17.3663 98.6107 17.4081C98.5697 17.4498 98.514 17.4732 98.456 17.4732H94.8699C94.8119 17.4732 94.7563 17.4967 94.7152 17.5384C94.6742 17.5801 94.6511 17.6367 94.6511 17.6957V19.7959C94.6511 19.8549 94.6742 19.9115 94.7152 19.9532C94.7563 19.9949 94.8119 20.0183 94.8699 20.0183H100.066C100.124 20.0183 100.18 20.0418 100.221 20.0835C100.262 20.1252 100.285 20.1818 100.285 20.2408V22.0985C100.285 22.1575 100.262 22.2141 100.221 22.2558C100.18 22.2975 100.124 22.321 100.066 22.321H92.6273C92.5693 22.321 92.5136 22.2975 92.4726 22.2558C92.4315 22.2141 92.4085 22.1575 92.4085 22.0985V11.0392C92.4085 10.9802 92.4315 10.9236 92.4726 10.8819C92.5136 10.8402 92.5693 10.8167 92.6273 10.8167H99.911C99.9667 10.8202 100.019 10.8451 100.057 10.8864C100.096 10.9278 100.117 10.9825 100.117 11.0392Z" fill="#A5A5A5"/>
<path d="M104.219 10.9179L106.365 14.0793C106.386 14.1065 106.412 14.1285 106.442 14.1437C106.472 14.1589 106.506 14.1668 106.539 14.1668C106.573 14.1668 106.606 14.1589 106.636 14.1437C106.667 14.1285 106.693 14.1065 106.713 14.0793L108.86 10.9179C108.88 10.8899 108.906 10.867 108.937 10.8512C108.967 10.8353 109.001 10.8269 109.035 10.8267H111.317C111.355 10.8289 111.391 10.8411 111.423 10.8622C111.455 10.8832 111.481 10.9124 111.499 10.9467C111.516 10.9811 111.524 11.0195 111.523 11.0581C111.521 11.0968 111.51 11.1343 111.49 11.1671L107.989 16.086C107.963 16.1232 107.95 16.1675 107.95 16.2128C107.95 16.2581 107.963 16.3024 107.989 16.3396L111.967 21.9015C111.987 21.9341 111.998 21.9715 112 22.0099C112.002 22.0484 111.993 22.0867 111.976 22.121C111.959 22.1553 111.933 22.1845 111.902 22.2056C111.87 22.2268 111.834 22.2393 111.796 22.2419H109.516C109.482 22.2413 109.449 22.2328 109.419 22.2169C109.389 22.2011 109.363 22.1784 109.343 22.1507L106.718 18.3308C106.697 18.304 106.671 18.2823 106.641 18.2674C106.611 18.2525 106.578 18.2447 106.545 18.2447C106.511 18.2447 106.479 18.2525 106.449 18.2674C106.419 18.2823 106.392 18.304 106.372 18.3308L103.746 22.1507C103.727 22.1784 103.701 22.2011 103.671 22.2169C103.641 22.2328 103.607 22.2413 103.574 22.2419H101.276C101.238 22.2393 101.202 22.2268 101.17 22.2056C101.139 22.1845 101.113 22.1553 101.096 22.121C101.079 22.0867 101.071 22.0484 101.072 22.0099C101.074 21.9715 101.085 21.9341 101.106 21.9015L105.085 16.3396C105.111 16.3024 105.124 16.2581 105.124 16.2128C105.124 16.1675 105.111 16.1232 105.085 16.086L101.585 11.1671C101.565 11.1345 101.553 11.0971 101.551 11.0586C101.55 11.0202 101.558 10.9819 101.575 10.9476C101.592 10.9133 101.618 10.8841 101.65 10.8629C101.681 10.8417 101.718 10.8292 101.755 10.8267H104.044C104.078 10.8269 104.112 10.8353 104.142 10.8512C104.173 10.867 104.199 10.8899 104.219 10.9179Z" fill="#A5A5A5"/>
<path d="M57.4076 13.9022C58.0145 13.5061 58.7171 13.2883 59.438 13.2726C60.7027 13.2726 61.6129 13.6308 62.232 14.2181C62.2942 14.2752 62.3742 14.3081 62.4579 14.311C62.5416 14.3138 62.6236 14.2864 62.6893 14.2337C63.426 13.6396 64.3313 13.3026 65.2711 13.2726C67.9229 13.2726 69.0716 14.7988 69.0716 17.226V21.6288C69.071 21.724 69.0334 21.8151 68.967 21.8822C68.9006 21.9493 68.8107 21.9869 68.7171 21.9869H67.3737C67.2803 21.9869 67.1907 21.9492 67.1246 21.882C67.0586 21.8149 67.0215 21.7238 67.0215 21.6288V17.4551C67.0215 16.0179 66.4023 15.2793 65.2011 15.2793C64.5086 15.2874 63.8464 15.569 63.3545 16.0646C63.3182 16.0987 63.2892 16.14 63.2693 16.1859C63.2493 16.2318 63.2388 16.2814 63.2385 16.3316V21.6243C63.2385 21.7193 63.2014 21.8104 63.1353 21.8776C63.0693 21.9448 62.9797 21.9825 62.8862 21.9825H61.5428C61.4964 21.9828 61.4503 21.9737 61.4074 21.9559C61.3644 21.938 61.3253 21.9117 61.2923 21.8784C61.2594 21.8451 61.2332 21.8055 61.2154 21.7619C61.1976 21.7183 61.1884 21.6715 61.1884 21.6243V17.4551C61.1884 16.0179 60.5692 15.2793 59.368 15.2793C58.6762 15.2875 58.0147 15.5692 57.5236 16.0646C57.4869 16.0984 57.4576 16.1396 57.4376 16.1856C57.4177 16.2316 57.4074 16.2813 57.4076 16.3316V21.6243C57.407 21.7195 57.3694 21.8106 57.303 21.8777C57.2366 21.9448 57.1468 21.9825 57.0532 21.9825H55.7098C55.6163 21.9825 55.5267 21.9448 55.4607 21.8776C55.3946 21.8104 55.3575 21.7193 55.3575 21.6243V13.9022C55.3575 13.8551 55.3666 13.8086 55.3843 13.7651C55.402 13.7217 55.428 13.6822 55.4607 13.6489C55.4934 13.6156 55.5322 13.5893 55.575 13.5713C55.6177 13.5533 55.6635 13.544 55.7098 13.544H57.0554C57.1486 13.5446 57.2379 13.5825 57.3038 13.6495C57.3697 13.7166 57.407 13.8074 57.4076 13.9022Z" fill="#A5A5A5"/>
<path d="M45.1818 20.444C45.1811 20.3881 45.1676 20.3331 45.1425 20.2834C45.1173 20.2337 45.0811 20.1907 45.0367 20.1577C44.9924 20.1246 44.9411 20.1026 44.8869 20.0932C44.8327 20.0838 44.7771 20.0873 44.7245 20.1036C44.4322 20.1974 44.1275 20.2454 43.8209 20.2459C43.1142 20.2459 42.495 19.7787 42.495 18.3416V16.0056C42.495 15.91 42.5323 15.8183 42.5988 15.7507C42.6653 15.6831 42.7554 15.6452 42.8494 15.6452H44.8295C44.923 15.6452 45.0126 15.6074 45.0786 15.5402C45.1447 15.4731 45.1818 15.382 45.1818 15.287V13.9032C45.1821 13.8559 45.1732 13.8091 45.1556 13.7654C45.138 13.7217 45.1121 13.682 45.0794 13.6485C45.0467 13.615 45.0077 13.5884 44.9648 13.5702C44.922 13.5521 44.876 13.5428 44.8295 13.5428H42.8494C42.7554 13.5428 42.6653 13.5048 42.5988 13.4372C42.5323 13.3696 42.495 13.2779 42.495 13.1823V11.7452C42.495 11.6502 42.4579 11.5591 42.3918 11.4919C42.3258 11.4247 42.2362 11.387 42.1427 11.387H40.7818C40.689 11.387 40.5998 11.424 40.5335 11.4902C40.4672 11.5563 40.4291 11.6463 40.4274 11.7407V13.1779C40.4277 13.2251 40.4188 13.2719 40.4012 13.3157C40.3836 13.3594 40.3577 13.3991 40.325 13.4326C40.2922 13.4661 40.2533 13.4927 40.2104 13.5108C40.1676 13.529 40.1216 13.5383 40.0751 13.5383H39.2787C39.2323 13.5383 39.1863 13.5476 39.1434 13.5658C39.1005 13.5839 39.0616 13.6105 39.0288 13.644C38.9961 13.6775 38.9702 13.7172 38.9526 13.761C38.9351 13.8047 38.9262 13.8515 38.9265 13.8987V15.2825C38.9265 15.3775 38.9636 15.4686 39.0296 15.5358C39.0957 15.603 39.1853 15.6407 39.2787 15.6407H40.0751C40.1216 15.6407 40.1676 15.65 40.2104 15.6682C40.2533 15.6863 40.2922 15.7129 40.325 15.7464C40.3577 15.7799 40.3836 15.8196 40.4012 15.8634C40.4188 15.9071 40.4277 15.9539 40.4274 16.0011V18.5151C40.4274 20.8511 41.5761 22.2527 43.8209 22.2527C44.1981 22.2392 44.5718 22.1749 44.9324 22.0613C45.0049 22.0388 45.0684 21.9931 45.1133 21.931C45.1583 21.8689 45.1823 21.7936 45.1818 21.7165V20.444Z" fill="#A5A5A5"/>
<path d="M50.0325 13.2687C49.1589 13.2691 48.305 13.5329 47.5789 14.0267C46.8527 14.5206 46.2868 15.2223 45.9528 16.0431C45.6188 16.8639 45.5317 17.7669 45.7023 18.6381C45.873 19.5093 46.2939 20.3094 46.9118 20.9374C47.5297 21.5654 48.3168 21.9929 49.1737 22.1661C50.0305 22.3392 50.9186 22.2501 51.7257 21.9101C52.5327 21.5701 53.2225 20.9943 53.7078 20.2557C54.1931 19.5171 54.4521 18.6487 54.4521 17.7604C54.4521 17.1704 54.3378 16.5861 54.1157 16.041C53.8935 15.4959 53.5679 15.0006 53.1575 14.5835C52.7471 14.1664 52.2598 13.8355 51.7236 13.6099C51.1874 13.3843 50.6128 13.2684 50.0325 13.2687ZM50.0325 20.2388C49.55 20.2406 49.0779 20.0967 48.676 19.8255C48.274 19.5542 47.9602 19.1678 47.7744 18.7151C47.5886 18.2624 47.5391 17.7638 47.6321 17.2824C47.7252 16.8011 47.9566 16.3586 48.2971 16.0111C48.6377 15.6636 49.0719 15.4267 49.545 15.3304C50.018 15.234 50.5086 15.2826 50.9544 15.4699C51.4003 15.6572 51.7815 15.9749 52.0497 16.3826C52.3179 16.7904 52.4611 17.2699 52.4611 17.7604C52.4611 18.4162 52.2055 19.0453 51.7503 19.5098C51.2951 19.9743 50.6774 20.2365 50.0325 20.2388Z" fill="#A5A5A5"/>
<path d="M72.3295 11.3442C72.3295 10.7458 71.8524 10.2607 71.2639 10.2607C70.6755 10.2607 70.1984 10.7458 70.1984 11.3442C70.1984 11.9426 70.6755 12.4277 71.2639 12.4277C71.8524 12.4277 72.3295 11.9426 72.3295 11.3442Z" fill="#A5A5A5"/>
<path d="M71.9227 13.5391H70.5815C70.3858 13.5391 70.2271 13.7005 70.2271 13.8995V21.6239C70.2271 21.8229 70.3858 21.9843 70.5815 21.9843H71.9227C72.1185 21.9843 72.2772 21.8229 72.2772 21.6239V13.8995C72.2772 13.7005 72.1185 13.5391 71.9227 13.5391Z" fill="#A5A5A5"/>
<path d="M37.7512 13.5371H36.4078C36.361 13.5365 36.3145 13.5455 36.2712 13.5633C36.2278 13.5812 36.1883 13.6077 36.1551 13.6412C36.1219 13.6748 36.0956 13.7148 36.0778 13.7588C36.0599 13.8028 36.0509 13.85 36.0512 13.8976V13.9665C35.383 13.5344 34.6129 13.2928 33.8214 13.2669C33.03 13.2411 32.2462 13.4319 31.5521 13.8194C30.858 14.207 30.279 14.7771 29.8758 15.47C29.4725 16.163 29.2598 16.9534 29.2598 17.7586C29.2598 18.5638 29.4725 19.3542 29.8758 20.0472C30.279 20.7401 30.858 21.3102 31.5521 21.6978C32.2462 22.0854 33.03 22.2762 33.8214 22.2503C34.6129 22.2244 35.383 21.9828 36.0512 21.5507V21.6241C36.0512 21.7191 36.0883 21.8102 36.1544 21.8774C36.2204 21.9446 36.31 21.9823 36.4034 21.9823H37.7468C37.8405 21.9823 37.9303 21.9447 37.9967 21.8775C38.0631 21.8104 38.1007 21.7193 38.1013 21.6241V13.8976C38.1013 13.8027 38.0646 13.7117 37.999 13.6443C37.9335 13.5768 37.8445 13.5383 37.7512 13.5371ZM33.686 20.2381C33.2286 20.2386 32.7803 20.1083 32.3924 19.862C32.0044 19.6157 31.6924 19.2633 31.4921 18.8452C31.2918 18.4272 31.2112 17.9602 31.2595 17.4977C31.3079 17.0353 31.4832 16.596 31.7655 16.23C32.0478 15.8641 32.4257 15.5864 32.8559 15.4285C33.2861 15.2706 33.7514 15.239 34.1984 15.3373C34.6455 15.4356 35.0563 15.6599 35.3839 15.9844C35.7116 16.3089 35.9428 16.7206 36.0512 17.1724V18.3471C35.9216 18.8857 35.6182 19.3647 35.1894 19.7075C34.7607 20.0503 34.2314 20.2371 33.686 20.2381Z" fill="#A5A5A5"/>
<path d="M79.981 20.2056C79.9809 20.1454 79.9659 20.0862 79.9374 20.0334C79.9089 19.9806 79.8679 19.9359 79.8181 19.9034C79.7682 19.8709 79.7112 19.8515 79.6522 19.8472C79.5931 19.8429 79.5339 19.8536 79.48 19.8785C78.972 20.1158 78.4199 20.2394 77.8609 20.2412C76.3294 20.2412 75.3689 19.1444 75.3689 17.7606C75.3689 16.3768 76.325 15.28 77.8609 15.28C78.4199 15.2817 78.972 15.4054 79.48 15.6426C79.5337 15.668 79.5928 15.6793 79.6519 15.6753C79.711 15.6714 79.7682 15.6523 79.8182 15.62C79.8681 15.5876 79.9092 15.5429 79.9377 15.4901C79.9662 15.4373 79.9811 15.378 79.981 15.3178V13.9696C79.9816 13.8983 79.9611 13.8286 79.922 13.7695C79.883 13.7103 79.8273 13.6645 79.7623 13.6381C79.1576 13.3898 78.5109 13.2643 77.8587 13.2688C75.1194 13.2688 73.264 15.2711 73.264 17.7606C73.264 20.2501 75.1194 22.2523 77.8587 22.2523C78.5107 22.2575 79.1574 22.1328 79.7623 21.8853C79.8275 21.8584 79.8832 21.8123 79.9223 21.7527C79.9613 21.6932 79.9818 21.6231 79.981 21.5515V20.2056Z" fill="#A5A5A5"/>
</g>
</g>
</svg>
