<?xml version="1.0" encoding="UTF-8"?>
<svg width="241px" height="232px" viewBox="0 0 241 232" version="1.1" xmlns="http://www.w3.org/2000/svg" xmlns:xlink="http://www.w3.org/1999/xlink">
    <!-- Generator: Sketch 53.2 (72643) - https://sketchapp.com -->
    <title>Group 40</title>
    <desc>Created with Sketch.</desc>
    <g id="Login-Signup" stroke="none" stroke-width="1" fill="none" fill-rule="evenodd">
        <g id="02-Signup-success" transform="translate(-849.000000, -262.000000)">
            <g id="Group-40" transform="translate(849.000000, 262.000000)">
                <polygon id="Fill-1" fill="#FEFEFE" opacity="0.2" points="166.632653 230 181.496599 230 181.496599 0 166.632653 0"></polygon>
                <polygon id="Fill-3" fill="#FEFEFE" opacity="0.2" points="110.306122 230 125.170068 230 125.170068 195.578231 110.306122 195.578231"></polygon>
                <g id="Group-9" transform="translate(227.653061, 93.877551)" stroke="#FEFEFE" stroke-width="2">
                    <path d="M6.69417211,0.103518175 L6.69417211,12.5002859" id="Stroke-5"></path>
                    <path d="M13.1027211,6.30219281 L0.28622449,6.30219281" id="Stroke-7"></path>
                </g>
                <g id="Group-14" transform="translate(0.000000, 40.680272)" stroke="#FEFEFE" stroke-width="5">
                    <path d="M12.3761083,0.385954082 L12.3761083,25.6139161" id="Stroke-10"></path>
                    <path d="M24.6087199,13.000085 L0.145241531,13.000085" id="Stroke-12"></path>
                </g>
                <g id="Group-19" transform="translate(35.986395, 82.925170)" stroke="#FEFEFE" stroke-width="2">
                    <path d="M10.6111648,0.31951746 L10.6111648,21.4751365" id="Stroke-15"></path>
                    <path d="M21.0864381,10.897619 L0.135023828,10.897619" id="Stroke-17"></path>
                </g>
                <path d="M184.24951,48.7755197 L189.25898,50.8498828 C190.807308,47.1145476 191.666667,43.0206439 191.666667,38.723749 L186.252706,38.723749 L186.252706,38.723749 C186.252706,35.1647346 185.534104,31.7716693 184.245065,28.6734598 L189.25898,26.5976151 C187.710652,22.8652432 185.458539,19.5032934 182.686366,16.6510441 L182.693774,16.642154 C182.590059,16.5369542 182.490788,16.4258276 182.387072,16.3206277 L178.5407,20.1656079 C176.124124,17.7460115 173.236382,15.7975919 170.031566,14.4640728 L172.110325,9.44855918 C168.373596,7.89871363 164.278306,7.04081633 159.982993,7.04081633 L159.982993,12.4534223 C156.424062,12.4534223 153.029594,13.1690775 149.931457,14.4566643 L147.857143,9.44855918 C145.920622,10.251634 144.08189,11.2399199 142.361691,12.3911914 C140.64001,13.5439446 139.038343,14.8611651 137.580396,16.3206277 L141.417878,20.1581994 C138.996856,22.5763141 137.051446,25.4656055 135.716476,28.6719782 L130.707006,26.5976151 C129.158679,30.3329503 128.29932,34.426854 128.29932,38.723749 L133.714762,38.723749 C133.714762,42.284245 134.434846,45.6743469 135.722403,48.7725564 L130.707006,50.8498828 C132.3146,54.723015 134.661539,58.2094267 137.580396,61.1268702 L141.425286,57.2833717 C141.660869,57.5174784 141.89497,57.7530668 142.139443,57.9797651 C144.403409,60.0793168 147.040752,61.7817762 149.932939,62.9863885 L147.857143,68.0004204 C151.592391,69.5487843 155.68768,70.4081633 159.982993,70.4081633 L159.982993,64.9940756 C163.541924,64.9925939 166.93491,64.2784204 170.034529,62.9908336 L172.110325,68.0004204 C175.981885,66.3942707 179.468215,64.0457954 182.387072,61.1268702 L178.54959,57.2907802 C180.967648,54.8711838 182.917504,51.9818924 184.24951,48.7755197 Z" id="Stroke-20" stroke="#6DC8C1" stroke-width="5"></path>
                <path d="M163.70987,35.2707795 C162.781412,34.2686587 161.453947,33.6394558 159.982226,33.6394558 C157.178436,33.6394558 154.897959,35.9199328 154.897959,38.7237225 C154.897959,40.1954435 155.525627,41.5229082 156.527748,42.4529009 C157.436256,43.2938843 158.650157,43.8095238 159.982226,43.8095238 C162.786016,43.8095238 165.068027,41.5290468 165.068027,38.7237225 C165.068027,37.3916538 164.552388,36.1777525 163.70987,35.2707795 Z" id="Stroke-22" stroke="#6DC8C1" stroke-width="5"></path>
                <path d="M86.1094861,197.437078 L93.4689638,200.484534 C95.7438195,194.995845 97.0068027,188.982655 97.0068027,182.670811 L89.05298,182.670811 C89.05298,177.440658 87.9980175,172.457154 86.1035426,167.90603 L93.4689638,164.855602 C91.1941081,159.371371 87.8880637,154.432442 83.8138283,150.242376 L83.8257152,150.23049 C83.6726714,150.074477 83.5285427,149.911034 83.374013,149.756507 L77.7232773,155.404181 C74.1705797,151.850054 69.9314136,148.988328 65.221229,147.028507 L68.2731909,139.660231 C62.7859002,137.383926 56.7711282,136.122449 50.4591837,136.122449 L50.4591837,144.076145 L50.4576978,144.076145 C45.2289472,144.076145 40.2423921,145.126633 35.6911949,147.019592 L32.6436906,139.660231 C29.7997495,140.839988 27.0954795,142.291652 24.5680271,143.985509 C22.0405747,145.677879 19.6884542,147.612441 17.5428685,149.756507 L23.1802314,155.39378 C19.6275338,158.947907 16.7657624,163.192948 14.8073954,167.903058 L7.44940358,164.855602 C5.17157615,170.342805 3.91156463,176.357481 3.91156463,182.670811 L11.8639015,182.670811 C11.8639015,187.899478 12.9218357,192.882982 14.8177964,197.432621 L7.44940358,200.484534 C9.8074676,206.173811 13.2576407,211.296984 17.5428685,215.583629 L23.1936042,209.935955 C23.5398102,210.282156 23.8845303,210.62687 24.2426232,210.959698 C27.5709555,214.0443 31.4431136,216.544967 35.6926807,218.314601 L32.6436906,225.679905 C38.1324672,227.95621 44.1472392,229.217687 50.4591837,229.217687 L50.4591837,221.263991 C55.6864485,221.262505 60.6744894,220.213503 65.2256866,218.320544 L68.2731909,225.679905 C73.962559,223.320392 79.0858134,219.87176 83.374013,215.583629 L77.7351642,209.946356 C81.2908335,206.392229 84.152605,202.147188 86.1094861,197.437078 Z" id="Stroke-24" stroke="#6DC8C1" stroke-width="5"></path>
                <path d="M55.2291653,178.27985 C53.9412376,176.89199 52.1050705,176.020408 50.067302,176.020408 C46.1861146,176.020408 43.0272109,179.180437 43.0272109,183.061224 C43.0272109,185.098783 43.8974323,186.934761 45.2854354,188.222556 C46.5429053,189.387083 48.2224327,190.102041 50.067302,190.102041 C53.9499398,190.102041 57.1088435,186.943462 57.1088435,183.061224 C57.1088435,181.216545 56.395262,179.535741 55.2291653,178.27985 Z" id="Stroke-26" stroke="#6DC8C1" stroke-width="5"></path>
                <path d="M226.870748,132.993197 L226.870748,154.115646" id="Stroke-28" stroke="#6DC8C1" stroke-width="3"></path>
                <path d="M237.040816,143.945578 L215.918367,143.945578" id="Stroke-30" stroke="#6DC8C1" stroke-width="3"></path>
                <polygon id="Fill-32" fill="#FEFEFE" opacity="0.2" points="139.251701 230 154.115646 230 154.115646 118.129252 139.251701 118.129252"></polygon>
                <path d="M189.319728,118.520408 C189.319728,165.830133 151.142464,204.183673 104.04688,204.183673 C56.9512967,204.183673 18.7755102,165.830133 18.7755102,118.520408 C18.7755102,71.2106835 56.9512967,32.8571429 104.04688,32.8571429 C151.142464,32.8571429 189.319728,71.2106835 189.319728,118.520408" id="Fill-34" fill="#1e2a3a"></path>
                <path d="M189.319728,118.520408 C189.319728,165.830133 151.142464,204.183673 104.04688,204.183673 C56.9512967,204.183673 18.7755102,165.830133 18.7755102,118.520408 C18.7755102,71.2106835 56.9512967,32.8571429 104.04688,32.8571429 C151.142464,32.8571429 189.319728,71.2106835 189.319728,118.520408 Z" id="Stroke-36" stroke="#FEFEFE" stroke-width="7"></path>
                <polyline id="Stroke-38" stroke="#41ead5" stroke-width="7" stroke-linecap="round" stroke-linejoin="round" points="60.2380952 122.39 90.3713255 149.421769 147.07483 87.6190476"></polyline>
            </g>
        </g>
    </g>
</svg>