<?xml version="1.0" encoding="UTF-8"?>
<svg xmlns="http://www.w3.org/2000/svg" xmlns:xlink="http://www.w3.org/1999/xlink" width="996" height="520" viewBox="0 0 996 520">
<path fill-rule="nonzero" fill="rgb(99.598694%, 99.598694%, 99.598694%)" fill-opacity="1" d="M 575.328125 222.785156 L 610.320312 222.785156 L 610.320312 355.972656 L 575.328125 355.972656 Z M 575.066406 161.941406 L 610.84375 161.941406 L 610.84375 192.753906 L 575.066406 192.753906 Z M 482.882812 250.726562 L 457.289062 250.726562 L 457.289062 222.785156 L 482.882812 222.785156 L 482.882812 210.773438 C 482.882812 164.027344 496.460938 162.199219 550.519531 162.199219 L 550.519531 187.53125 C 521.269531 187.53125 517.613281 189.097656 517.613281 205.027344 L 517.613281 222.785156 L 550.519531 222.785156 L 550.519531 250.726562 L 517.613281 250.726562 L 517.613281 355.972656 L 482.882812 355.972656 Z M 482.882812 250.726562 "/>
<path fill-rule="nonzero" fill="rgb(99.598694%, 99.598694%, 99.598694%)" fill-opacity="1" d="M 646.886719 222.785156 L 679.53125 222.785156 L 680.574219 245.765625 L 682.664062 245.765625 C 689.714844 225.921875 703.816406 220.699219 725.230469 220.699219 L 725.230469 253.863281 C 691.019531 253.863281 681.617188 266.398438 681.617188 302.699219 L 681.617188 355.972656 L 646.886719 355.972656 Z M 646.886719 222.785156 "/>
<path fill-rule="nonzero" fill="rgb(99.598694%, 99.598694%, 99.598694%)" fill-opacity="1" d="M 831 289.117188 C 831 252.554688 831 248.640625 804.886719 248.640625 C 778.769531 248.640625 778.769531 252.554688 778.769531 289.117188 C 778.769531 325.679688 778.769531 330.121094 804.886719 330.121094 C 831 330.121094 831 325.679688 831 289.117188 M 743.777344 289.117188 C 743.777344 235.320312 747.171875 220.699219 804.886719 220.699219 C 862.597656 220.699219 865.992188 235.320312 865.992188 289.117188 C 865.992188 342.914062 862.597656 358.058594 804.886719 358.058594 C 747.171875 358.058594 743.777344 342.914062 743.777344 289.117188 "/>
<path fill-rule="nonzero" fill="rgb(99.598694%, 99.598694%, 99.598694%)" fill-opacity="1" d="M 389.75 260 C 389.75 331.65625 331.664062 389.746094 260.003906 389.746094 C 188.347656 389.746094 130.261719 331.65625 130.261719 260 C 130.261719 188.34375 188.347656 130.253906 260.003906 130.253906 C 331.664062 130.253906 389.75 188.34375 389.75 260 "/>
<path fill-rule="nonzero" fill="rgb(60.798645%, 10.998535%, 17.999268%)" fill-opacity="1" d="M 206.351562 316.875 C 209.367188 316.875 212.128906 315.207031 213.539062 312.539062 L 232.679688 276.25 L 203.128906 276.25 C 198.664062 276.25 195.003906 272.59375 195.003906 268.125 L 195.003906 251.875 C 195.003906 247.40625 198.664062 243.75 203.128906 243.75 L 249.820312 243.75 L 286.105469 174.960938 C 287.511719 172.292969 290.277344 170.625 293.292969 170.625 L 354.359375 170.625 C 330.667969 145.621094 297.171875 130 260.003906 130 C 188.207031 130 130.003906 188.203125 130.003906 260 C 130.003906 280.398438 134.714844 299.695312 143.089844 316.875 Z M 206.351562 316.875 "/>
<path fill-rule="nonzero" fill="rgb(60.798645%, 10.998535%, 17.999268%)" fill-opacity="1" d="M 313.660156 203.125 C 310.648438 203.125 307.882812 204.792969 306.472656 207.460938 L 287.332031 243.75 L 316.882812 243.75 C 321.347656 243.75 325.007812 247.40625 325.007812 251.875 L 325.007812 268.125 C 325.007812 272.59375 321.347656 276.25 316.882812 276.25 L 270.191406 276.25 L 233.90625 345.039062 C 232.5 347.707031 229.734375 349.375 226.71875 349.375 L 165.652344 349.375 C 189.34375 374.378906 222.839844 390 260.007812 390 C 331.804688 390 390.007812 331.796875 390.007812 260 C 390.007812 239.601562 385.296875 220.304688 376.921875 203.125 Z M 313.660156 203.125 "/>
</svg>
