<svg width="378" height="240" viewBox="0 0 378 240" fill="none" xmlns="http://www.w3.org/2000/svg">
<g clip-path="url(#clip0_286_25263)">
<path fill-rule="evenodd" clip-rule="evenodd" d="M125.066 61.1188C125.039 77.3469 131.433 92.9212 142.841 104.416C154.248 115.91 169.736 122.383 185.897 122.41C202.057 122.438 217.566 116.017 229.013 104.562C240.459 93.1061 246.905 77.5536 246.932 61.3255V60.8624C246.93 56.1557 246.378 51.4655 245.286 46.8884C244.84 45.2447 243.777 43.8388 242.32 42.9668C240.862 42.0949 239.125 41.8251 237.474 42.2143C235.822 42.6034 234.386 43.6211 233.467 45.0529C232.548 46.4847 232.218 48.2189 232.547 49.8899C235.011 60.0858 234.09 70.8109 229.925 80.4329C225.76 90.055 218.579 98.0472 209.474 103.193C200.369 108.34 189.839 110.358 179.487 108.941C169.134 107.525 159.526 102.75 152.125 95.3454C144.723 87.9404 139.933 78.31 138.484 67.9196C137.035 57.5292 139.005 46.9478 144.096 37.7857C149.187 28.6236 157.119 21.3824 166.685 17.164C176.252 12.9457 186.928 11.9812 197.091 14.4173C198.776 14.812 200.547 14.5203 202.018 13.6059C203.489 12.6915 204.539 11.229 204.938 9.53877C205.141 8.70568 205.177 7.84043 205.044 6.99326C204.911 6.1461 204.612 5.3339 204.164 4.60384C203.715 3.87378 203.127 3.24041 202.433 2.74051C201.739 2.24061 200.953 1.88414 200.121 1.6918C192.346 -0.184601 184.278 -0.503797 176.38 0.752457C168.481 2.00871 160.907 4.81578 154.09 9.01322C147.272 13.2107 141.345 18.7161 136.648 25.215C131.951 31.7138 128.575 39.0786 126.713 46.8884C125.624 51.5529 125.071 56.3276 125.066 61.1188ZM216.803 16.2518L216.803 16.2519C216.774 16.2936 216.749 16.3286 216.722 16.3515C215.222 17.9506 214.3 20.0092 214.104 22.1974V23.2475C214.104 23.3797 214.092 23.4974 214.079 23.6151L214.079 23.6155L214.079 23.6159C214.067 23.7336 214.055 23.8513 214.055 23.9835C213.831 26.2949 213.155 28.5393 212.066 30.5877C210.976 32.6362 209.495 34.4485 207.706 35.9205C205.917 37.3925 203.857 38.4952 201.642 39.1655C199.428 39.8358 197.104 40.0603 194.803 39.8262C194.027 39.7582 193.257 39.6366 192.498 39.4624C192.05 39.3691 191.61 39.2448 191.18 39.0903C189.313 38.6173 187.39 38.4058 185.466 38.4619C179.853 38.5721 174.475 40.743 170.348 44.5642C170.265 44.6475 170.172 44.7242 170.077 44.8028C169.937 44.9191 169.792 45.0396 169.664 45.1926C167.405 47.2881 165.591 49.8201 164.331 52.6367C163.07 55.4532 162.388 58.4964 162.327 61.5839C162.266 64.6713 162.826 67.7393 163.974 70.604C165.123 73.4688 166.835 76.0712 169.009 78.2553C171.183 80.4394 173.773 82.1603 176.626 83.3147C179.478 84.469 182.533 85.0332 185.607 84.9733C188.682 84.9134 191.713 84.2308 194.518 82.9662C197.324 81.7016 199.846 79.8812 201.934 77.6141C202.878 76.6569 203.737 75.6195 204.503 74.5133C206.344 71.8534 207.605 68.8327 208.202 65.6493C208.8 62.4659 208.721 59.1916 207.97 56.0411C207.847 55.6501 207.745 55.2531 207.663 54.8515C207.653 54.8013 207.648 54.7497 207.629 54.7019C207.606 54.6423 207.596 54.5789 207.585 54.5155C207.579 54.4834 207.574 54.4512 207.567 54.4195C207.072 52.1991 207.009 49.9031 207.382 47.6579C207.763 45.365 208.592 43.1702 209.82 41.1996C211.047 39.229 212.651 37.5213 214.538 36.1745C216.425 34.8278 218.558 33.8686 220.815 33.3519C221.625 33.1523 222.452 33.0305 223.285 32.988L223.647 32.9302C224.014 32.8888 224.382 32.8723 224.751 32.8805H224.858C227.134 32.6614 229.264 31.6561 230.885 30.0361C230.923 29.9928 230.961 29.9497 230.999 29.9067L231.045 29.8548L231.045 29.8547C231.361 29.497 231.671 29.1461 231.939 28.771C232.69 27.716 233.224 26.522 233.511 25.2582C233.799 23.9943 233.834 22.6858 233.614 21.4083C233.394 20.1309 232.924 18.9099 232.231 17.8162C231.538 16.7225 230.635 15.7778 229.576 15.0367C227.681 13.6949 225.377 13.0648 223.066 13.2568C220.756 13.4487 218.586 14.4505 216.937 16.0869C216.879 16.1449 216.838 16.2029 216.803 16.2518ZM100.596 149.761C95.1516 149.765 89.9235 151.911 86.0257 155.742C82.1278 159.573 79.8683 164.786 79.7284 170.271C79.7284 182.351 88.2948 190.78 100.596 190.78C106.045 190.782 111.279 188.639 115.181 184.807C119.084 180.976 121.347 175.759 121.487 170.271C121.487 158.19 112.898 149.761 100.596 149.761ZM109.275 170.271C109.34 171.449 109.162 172.628 108.753 173.733C108.343 174.839 107.711 175.847 106.896 176.694C106.08 177.541 105.1 178.209 104.015 178.655C102.931 179.101 101.767 179.316 100.596 179.286C99.4293 179.302 98.2713 179.078 97.1932 178.628C96.1152 178.177 95.1399 177.509 94.3272 176.665C93.5145 175.821 92.8817 174.818 92.4674 173.718C92.0532 172.619 91.8663 171.446 91.9182 170.271C91.8529 169.093 92.0306 167.913 92.4401 166.808C92.8496 165.702 93.4819 164.694 94.2973 163.847C95.1126 163 96.0933 162.333 97.1775 161.887C98.2616 161.441 99.4257 161.226 100.596 161.256C101.771 161.212 102.941 161.417 104.032 161.858C105.122 162.3 106.108 162.967 106.927 163.817C107.745 164.667 108.377 165.681 108.781 166.792C109.186 167.904 109.354 169.089 109.275 170.271ZM162.929 155.486C166.917 151.819 172.115 149.779 177.512 149.761C189.702 149.761 198.224 158.19 198.157 170.361V188.165C198.151 188.652 197.955 189.116 197.612 189.458C197.268 189.799 196.805 189.991 196.323 189.991H187.756C187.276 189.991 186.815 189.799 186.475 189.456C186.135 189.114 185.945 188.65 185.945 188.165V170.361C186.01 169.182 185.832 168.003 185.423 166.898C185.013 165.792 184.381 164.784 183.565 163.937C182.75 163.09 181.769 162.423 180.685 161.977C179.601 161.53 178.437 161.316 177.266 161.345C176.092 161.302 174.922 161.507 173.831 161.948C172.741 162.39 171.754 163.057 170.936 163.907C170.118 164.757 169.486 165.771 169.082 166.882C168.677 167.994 168.509 169.179 168.588 170.361V188.165C168.588 188.65 168.397 189.114 168.057 189.456C167.718 189.799 167.257 189.991 166.776 189.991H158.322C157.841 189.991 157.381 189.799 157.041 189.456C156.701 189.114 156.51 188.65 156.51 188.165V170.361C156.589 169.179 156.421 167.994 156.017 166.882C155.612 165.771 154.98 164.757 154.162 163.907C153.344 163.057 152.358 162.39 151.267 161.948C150.177 161.507 149.006 161.302 147.832 161.345C146.661 161.316 145.497 161.53 144.413 161.977C143.329 162.423 142.348 163.09 141.533 163.937C140.717 164.784 140.085 165.792 139.676 166.898C139.266 168.003 139.088 169.182 139.154 170.361V188.165C139.154 188.65 138.963 189.114 138.623 189.456C138.283 189.799 137.823 189.991 137.342 189.991H128.753C128.502 190.001 128.252 189.958 128.018 189.865C127.784 189.771 127.572 189.63 127.395 189.45C127.219 189.27 127.081 189.055 126.991 188.818C126.902 188.581 126.862 188.328 126.874 188.075V170.27C126.874 157.604 137.812 149.761 147.944 149.761C153.494 149.593 158.884 151.652 162.929 155.486ZM224.506 149.761C219.059 149.765 213.828 151.91 209.927 155.741C206.025 159.571 203.761 164.784 203.615 170.271C203.615 182.351 212.204 190.78 224.506 190.78C229.952 190.782 235.183 188.638 239.083 184.806C242.982 180.974 245.239 175.757 245.374 170.271C245.374 158.19 236.785 149.761 224.506 149.761ZM233.184 170.271C233.249 171.449 233.071 172.628 232.662 173.733C232.252 174.839 231.62 175.847 230.805 176.694C229.989 177.541 229.009 178.209 227.925 178.655C226.84 179.101 225.676 179.316 224.506 179.286C222.373 178.98 220.422 177.908 219.01 176.269C217.598 174.629 216.821 172.531 216.821 170.361C216.821 168.19 217.598 166.092 219.01 164.453C220.422 162.813 222.373 161.742 224.506 161.436C225.664 161.394 226.818 161.595 227.896 162.025C228.974 162.456 229.951 163.106 230.766 163.937C231.582 164.767 232.218 165.758 232.634 166.848C233.05 167.939 233.237 169.104 233.184 170.271ZM271.859 149.738C274.709 149.842 277.497 150.614 280 151.992V132.249C280 131.793 280.178 131.355 280.496 131.03C280.815 130.705 281.247 130.519 281.7 130.514H290.49C290.943 130.519 291.375 130.705 291.693 131.03C292.011 131.355 292.19 131.793 292.19 132.249V170.225C292.055 175.712 289.798 180.928 285.899 184.76C282 188.592 276.768 190.736 271.322 190.735C259.02 190.735 250.431 182.305 250.431 170.225C250.468 167.451 251.056 164.713 252.159 162.172C253.263 159.631 254.86 157.338 256.857 155.428C258.854 153.519 261.21 152.032 263.787 151.055C266.363 150.077 269.108 149.63 271.859 149.738ZM279.478 173.733C279.888 172.628 280.065 171.448 280 170.27C280.053 169.103 279.866 167.938 279.45 166.848C279.034 165.758 278.398 164.766 277.583 163.936C276.767 163.106 275.79 162.455 274.712 162.025C273.635 161.594 272.48 161.394 271.322 161.435C269.189 161.742 267.238 162.813 265.826 164.452C264.414 166.092 263.637 168.19 263.637 170.36C263.637 172.531 264.414 174.629 265.826 176.268C267.238 177.908 269.189 178.979 271.322 179.285C272.492 179.315 273.657 179.1 274.741 178.654C275.825 178.208 276.806 177.541 277.621 176.694C278.436 175.847 279.069 174.839 279.478 173.733ZM318.132 149.761C312.685 149.765 307.455 151.91 303.553 155.741C299.652 159.571 297.387 164.784 297.242 170.271C297.242 182.351 305.83 190.78 318.132 190.78C323.579 190.782 328.81 188.638 332.709 184.806C336.608 180.974 338.866 175.757 339 170.271C339 158.19 330.411 149.761 318.132 149.761ZM326.81 170.271C326.876 171.449 326.698 172.628 326.288 173.733C325.879 174.839 325.247 175.847 324.431 176.694C323.616 177.541 322.635 178.209 321.551 178.655C320.467 179.101 319.303 179.316 318.132 179.286C316.965 179.302 315.807 179.078 314.729 178.628C313.651 178.177 312.676 177.509 311.863 176.665C311.05 175.821 310.417 174.818 310.003 173.718C309.589 172.619 309.402 171.446 309.454 170.271C309.389 169.093 309.566 167.913 309.976 166.808C310.385 165.702 311.018 164.694 311.833 163.847C312.648 163 313.629 162.333 314.713 161.887C315.797 161.441 316.961 161.226 318.132 161.256C319.306 161.212 320.477 161.417 321.567 161.858C322.658 162.3 323.644 162.967 324.462 163.817C325.28 164.667 325.912 165.681 326.317 166.792C326.721 167.904 326.889 169.089 326.81 170.271ZM66.1306 149.761H79.215C79.4668 149.777 79.7092 149.863 79.9155 150.009C80.1217 150.155 80.2837 150.356 80.3833 150.59C80.4829 150.823 80.5164 151.08 80.4799 151.332C80.4435 151.583 80.3385 151.82 80.1768 152.015L65.8622 166.461C65.6289 166.691 65.4867 166.998 65.462 167.326C65.4373 167.654 65.5318 167.979 65.728 168.242L80.3781 188.526C80.5481 188.731 80.655 188.982 80.6857 189.248C80.7164 189.513 80.6695 189.782 80.5508 190.022C80.4321 190.261 80.2468 190.46 80.0175 190.595C79.7881 190.729 79.5248 190.794 79.2597 190.78H67.8528C67.6356 190.781 67.4213 190.73 67.2271 190.632C67.0328 190.534 66.8641 190.392 66.7345 190.216L57.4076 177.347C57.2931 177.183 57.1444 177.047 56.9719 176.947C56.7994 176.847 56.6074 176.786 56.4092 176.769C56.2111 176.752 56.0116 176.779 55.8247 176.847C55.6379 176.916 55.4682 177.025 55.3275 177.167L51.6147 180.931C51.4847 181.055 51.3818 181.206 51.3125 181.373C51.2432 181.54 51.2091 181.719 51.2121 181.9V189.405C51.2121 189.587 51.1761 189.768 51.1062 189.936C51.0362 190.105 50.9337 190.257 50.8046 190.385C50.6756 190.513 50.5225 190.614 50.3544 190.682C50.1863 190.749 50.0064 190.783 49.8254 190.78H40.3867C40.2057 190.783 40.0259 190.749 39.8577 190.682C39.6896 190.614 39.5366 190.513 39.4075 190.385C39.2784 190.257 39.1759 190.105 39.1059 189.936C39.036 189.768 39 189.587 39 189.405V131.911C39 131.727 39.0359 131.546 39.1056 131.376C39.1752 131.207 39.2774 131.053 39.4062 130.923C39.5349 130.793 39.6878 130.69 39.856 130.62C40.0243 130.55 40.2046 130.514 40.3867 130.514H49.8925C50.0746 130.514 50.2549 130.55 50.4232 130.62C50.5914 130.69 50.7443 130.793 50.8731 130.923C51.0018 131.053 51.104 131.207 51.1737 131.376C51.2433 131.546 51.2792 131.727 51.2792 131.911V160.94C51.295 161.193 51.3802 161.438 51.5254 161.645C51.6706 161.853 51.8702 162.016 52.102 162.117C52.3337 162.217 52.5885 162.251 52.8381 162.214C53.0877 162.178 53.3223 162.072 53.5159 161.909L65.1464 150.167C65.4143 149.915 65.7644 149.77 66.1306 149.761ZM118.795 240L111 211.875H115.46L120.936 233.655H121.197L126.893 211.875H131.312L137.008 233.669H137.268L142.731 211.875H147.205L139.396 240H135.127L129.212 218.934H128.993L123.077 240H118.795ZM151.03 240H146.529L156.644 211.875H161.543L171.658 240H167.156L164.587 232.557H153.605L151.03 240ZM159.21 216.984L163.354 228.986H154.839L158.99 216.984H159.21ZM175.717 211.875V240H192.694V236.347H179.958V211.875H175.717ZM197.532 240V211.875H201.772V236.347H214.509V240H197.532ZM219.346 211.875V240H237.133V236.347H223.587V227.737H236.049V224.097H223.587V215.528H236.968V211.875H219.346ZM241.247 215.528V211.875H263V215.528H254.23V240H250.003V215.528H241.247Z" fill="white"/>
</g>
<defs>
<clipPath id="clip0_286_25263">
<rect width="378" height="240" fill="white"/>
</clipPath>
</defs>
</svg>
