<?xml version="1.0" encoding="UTF-8" standalone="no"?>
<!-- Generator: Adobe Illustrator 22.1.0, SVG Export Plug-In . SVG Version: 6.00 Build 0)  -->

<svg
   version="1.1"
   id="Layer_1"
   x="0px"
   y="0px"
   viewBox="0 0 802.5 481.2"
   style="enable-background:new 0 0 802.5 481.2;"
   xml:space="preserve"
   sodipodi:docname="Pirate_Logo_Stacked_WG.svg"
   inkscape:export-filename="../../../../../../../Repos/komodo/komodo-wallet-mobile/assets/branding/mark_and_text_vertical_white.png"
   inkscape:export-xdpi="45.457943"
   inkscape:export-ydpi="45.457943"
   inkscape:version="1.3.2 (091e20e, 2023-11-25)"
   xmlns:inkscape="http://www.inkscape.org/namespaces/inkscape"
   xmlns:sodipodi="http://sodipodi.sourceforge.net/DTD/sodipodi-0.dtd"
   xmlns="http://www.w3.org/2000/svg"
   xmlns:svg="http://www.w3.org/2000/svg"><defs
   id="defs18" /><sodipodi:namedview
   id="namedview18"
   pagecolor="#ffffff"
   bordercolor="#000000"
   borderopacity="0.25"
   inkscape:showpageshadow="2"
   inkscape:pageopacity="0.0"
   inkscape:pagecheckerboard="0"
   inkscape:deskcolor="#d1d1d1"
   inkscape:zoom="0.72647975"
   inkscape:cx="401.25"
   inkscape:cy="240.1994"
   inkscape:window-width="1392"
   inkscape:window-height="1184"
   inkscape:window-x="1783"
   inkscape:window-y="135"
   inkscape:window-maximized="0"
   inkscape:current-layer="Layer_1" />
<style
   type="text/css"
   id="style1">
	.st0{fill:#BB9645;}
	.st1{fill:#0A0B0B;}
	.st2{fill:#FFFFFF;}
	.st3{fill:#231F20;}
	.st4{fill:url(#SVGID_1_);}
	.st5{fill:url(#SVGID_2_);}
	.st6{fill:url(#SVGID_3_);}
	.st7{fill:url(#SVGID_4_);}
	.st8{fill:url(#SVGID_5_);}
	.st9{fill:url(#SVGID_6_);}
	.st10{fill:url(#SVGID_7_);}
	.st11{fill:url(#SVGID_8_);}
	.st12{fill:url(#SVGID_9_);}
	.st13{fill:url(#SVGID_10_);}
	.st14{fill:url(#SVGID_11_);}
	.st15{fill:#1B1B1B;}
	.st16{fill:url(#SVGID_12_);}
	.st17{fill:url(#SVGID_13_);}
	.st18{fill:url(#SVGID_14_);}
	.st19{fill:url(#SVGID_15_);}
	.st20{fill:url(#SVGID_16_);}
	.st21{fill:url(#SVGID_17_);}
	.st22{fill:url(#SVGID_18_);}
	.st23{fill:url(#SVGID_19_);}
	.st24{fill:url(#SVGID_20_);}
	.st25{fill:url(#SVGID_21_);}
	.st26{fill:url(#SVGID_22_);}
</style>
<g
   id="g18">
	<g
   id="g8">
		<g
   id="g5">
			<path
   class="st2"
   d="M280.2,333.6c-3-3-4.5-6.9-4.5-11.6c0-4.7,1.5-8.6,4.5-11.6c3-3,7.1-4.5,12.1-4.5c5,0,9.1,1.5,12.2,4.5     c3.1,3,4.7,6.9,4.7,11.6c0,4.7-1.6,8.6-4.7,11.6c-3.1,3-7.2,4.5-12.2,4.5C287.2,338.2,283.2,336.6,280.2,333.6z M279.6,350.6     h25.5v110.6h-25.5V350.6z"
   id="path1" />
			<path
   class="st2"
   d="M328.6,350.6h23.7v15.1c3-4.6,7.2-8.3,12.7-11.2c5.5-2.9,11.3-4.3,17.2-4.3h13.3v22.2h-13.3     c-8.4,0-15.2,2.6-20.4,7.8c-5.2,5.2-7.8,11.9-7.8,20.2v60.9h-25.5V350.6z"
   id="path2" />
			<path
   class="st2"
   d="M405.8,454.4c-6.9-5.7-10.3-13.3-10.3-22.7v-8c0-9.3,3.6-16.8,10.7-22.4c7.2-5.6,16.6-8.4,28.3-8.4h13.7     c4.1,0,8.6,0.6,13.3,1.8c4.7,1.2,8.9,2.7,12.6,4.7v-13.7c0-4.6-1.5-8.3-4.4-11.1c-3-2.8-6.8-4.2-11.5-4.2h-18.6     c-4.9,0-8.8,1.1-11.7,3.4c-3,2.3-4.4,5.3-4.4,9h-24.8c0-10.2,3.8-18.4,11.3-24.6c7.5-6.2,17.4-9.3,29.7-9.3h18.6     c12.4,0,22.4,3.4,29.9,10.1c7.5,6.7,11.3,15.6,11.3,26.7v75.6h-23.7v-14c-3.5,4.7-8,8.5-13.3,11.4c-5.3,2.9-10.6,4.3-15.7,4.3     h-13.7C421.7,462.9,412.7,460.1,405.8,454.4z M448.2,443c5.9,0,11.2-1.7,16-5c4.7-3.3,8-7.7,10-13.2v-5.3     c-2.5-2.1-6.1-3.7-10.6-5c-4.6-1.3-9.4-1.9-14.4-1.9h-14c-4.4,0-8,1.1-10.7,3.3c-2.7,2.2-4.1,5.1-4.1,8.6v6.2     c0,3.7,1.4,6.6,4.2,8.9c2.8,2.2,6.5,3.3,11.1,3.3H448.2z"
   id="path3" />
			<path
   class="st2"
   d="M536.9,452.7c-5.8-5.6-8.6-14.5-8.6-26.6v-53.6h-19.5v-21.9h20.2v-33.5h24.8v33.5h28.8v21.9h-28.8v52.7     c0,4.9,1,8.4,2.9,10.6c1.9,2.2,4.9,3.3,9.1,3.3h16.8v21.9h-18.2C551.8,461.1,542.6,458.3,536.9,452.7z"
   id="path4" />
			<path
   class="st2"
   d="M611.2,457.8c-6.9-3.4-12.2-8.2-16-14.4c-3.8-6.2-5.7-13.4-5.7-21.5v-29.7c0-8.6,1.9-16.1,5.7-22.7     c3.8-6.6,9.1-11.7,16-15.3c6.9-3.6,14.8-5.4,23.8-5.4h17.7c13.4,0,24.2,3.9,32.4,11.7c8.1,7.8,12.2,18.2,12.2,31.2v22.2h-82.2v8     c0,5.9,1.8,10.6,5.4,14.2c3.6,3.5,8.5,5.3,14.5,5.3h17.1c5.9,0,10.7-1.4,14.3-4.3c3.6-2.9,5.4-6.7,5.4-11.4h25     c0,11.2-4.1,20.2-12.4,27c-8.3,6.8-19.1,10.2-32.6,10.2H635C626,462.9,618.1,461.2,611.2,457.8z M672.2,394.9v-3.1     c0-6.5-1.8-11.7-5.3-15.7c-3.5-4-8.2-6-14-6H635c-6.1,0-11,2.1-14.7,6.3c-3.8,4.2-5.7,9.7-5.7,16.5v2H672.2z"
   id="path5" />
		</g>
		<g
   id="g7">
			<path
   class="st2"
   d="M134.8,345.4c0-5.3,5-9.8,11-9.8h54.4l39.5-19.8c-6.1-6-14.4-9.7-23.6-9.7H139c-18.8,0-33.8,15-33.8,33.6     v45.4l29.6-15.4V345.4z"
   id="path6" />
			<path
   class="st2"
   d="M249.7,338l-29.6,14.8v29.5c0,5.5-5.1,9.9-11.2,9.9h-65.1l-38.7,20.2v25.3v14.4v10.2h11.7l10.1-0.3     c4.4-1,8-5,8-9.9v-28.7h81.2c18.6,0,33.6-15,33.6-33.6v-50.2C249.7,339.1,249.7,338.5,249.7,338z"
   id="path7" />
		</g>
	</g>
	<g
   id="g17">
		<linearGradient
   id="SVGID_1_"
   gradientUnits="userSpaceOnUse"
   x1="302.3998"
   y1="42.204"
   x2="496.9377"
   y2="232.7718">
			<stop
   offset="0"
   style="stop-color:#B38C30"
   id="stop8" />
			<stop
   offset="1"
   style="stop-color:#F2DE98"
   id="stop9" />
		</linearGradient>
		<path
   class="st4"
   d="M332.1,177.4c4.1-0.8,13-2.4,23.3-4.1c1.3-0.2,2.5,1,2.1,2.3c-0.6,2.4-1.4,4.8-2.2,7.3    c-0.3,0.9,0.5,1.8,1.4,1.6c46.9-9.1,80.1-24.8,107.7-46.8c1.5-1.2,2.4-2.9,2.7-4.7c2.1-14-2.1-22-6.3-25.8    c-4.5-4.1-7.9-8.1-32.5-9.6c-13.9-0.5-21.5,0.2-24,0.5c-0.4,0.1-0.6,0.5-0.4,0.9c2.5,3.9,13.4,22.1,10.1,38.8l-5.4-18.9    c-3.5-9.7-9.1-19.2-11.6-22.7c-0.7-1-0.4-2,0.8-2.2c3.3-0.6,10-0.8,17.4-1.4c8.7-0.4,17.2-0.1,22.8,0.6    c-6.3-30.5-19.5-41.7-49.3-43.6V20.2c0-0.7-0.6-1.3-1.3-1.3h-4.3c-0.7,0-1.3,0.6-1.3,1.3v29c-24.8-0.8-46.2,1.6-53.1,2.3    c-0.9,0.1-1.4,1.1-0.9,1.8c2.4,4,11.9,15.7,15.7,32.2c-8.9-0.1-18.5,1-27.8,4.6c-1,0.4-1.3,1.6-0.6,2.4    c24.6,30.2,17.4,72.4,15.1,82.8C329.9,176.6,330.9,177.6,332.1,177.4z"
   id="path9" />
		<linearGradient
   id="SVGID_2_"
   gradientUnits="userSpaceOnUse"
   x1="337.7003"
   y1="6.168"
   x2="532.2383"
   y2="196.7358">
			<stop
   offset="0"
   style="stop-color:#B38C30"
   id="stop10" />
			<stop
   offset="1"
   style="stop-color:#F2DE98"
   id="stop11" />
		</linearGradient>
		<path
   class="st5"
   d="M361.2,31.6c0,0-0.6-2.6-0.1-4.9c6.6-1.4,16.2,1.3,16.2,1.3s0-4.3,0-7.9c-5-2.3-16-2-19.6-1.2    c-3.6,0.8-4.2,2.5-5,4.1c-7.1,0.2-14.6,2-14.6,2l4.7,2.8l-3.9,4.3C345.5,29.4,361.2,31.6,361.2,31.6z"
   id="path11" />
		<linearGradient
   id="SVGID_3_"
   gradientUnits="userSpaceOnUse"
   x1="282.0394"
   y1="62.9885"
   x2="476.5774"
   y2="253.5563">
			<stop
   offset="0"
   style="stop-color:#B38C30"
   id="stop12" />
			<stop
   offset="1"
   style="stop-color:#F2DE98"
   id="stop13" />
		</linearGradient>
		<path
   class="st6"
   d="M480.7,228.4c-10.1-2.8-8.1-2.7-20-5.1c6.7-8.1,28-34.8,22.8-43.3c-6.2-10-13.4-16.6-11.1-26.2    c2.3-9.6,18.4-20.7,22-23.8s-2.9-8.8-5.7-6.3c-2.9,2.4-4.9,4.4-11.8,9.4c-8.5,6.2-15.5,13.9-14.7,24.7c0.7,9.6,0.8,37.1-11.8,51.7    c-0.7,0.8-1.9,0-1.5-0.9c3.1-6.8,3.8-16.1,3.2-23.7c-26.1,13-49.4,15.6-64.9,15.5c-0.9,0-1-1.3-0.2-1.5    c24.9-5,62.4-18.1,64.4-23.7c2.3-6.2-1-17.4-1-17.4s-12.3,6.1-30.1,13.2c-5.9,2.6-12.2,5-19.2,7.2c-1.5,0.5-3,0.9-4.5,1.4    c-20.2,6.6-47.3,12.8-62.3,12.2c-12.1-0.4-20.1-1.6-22.7-2c-0.5-0.1-0.9,0.3-0.9,0.8c0.3,4.5,1.9,23.7,10.6,32.7    c-2,0.4-5.5,1.3-8,2.6c-2.6,1.3-9.9,8.4-4.5,7.8c30.4-3.5,69.6-6.7,88.1-6.1c19.5,0.6,57.9,6.5,91.9,11.9    C494.3,240.4,485.9,229.8,480.7,228.4z"
   id="path13" />
		<linearGradient
   id="SVGID_4_"
   gradientUnits="userSpaceOnUse"
   x1="243.6169"
   y1="102.2115"
   x2="438.1548"
   y2="292.7793">
			<stop
   offset="0"
   style="stop-color:#B38C30"
   id="stop14" />
			<stop
   offset="1"
   style="stop-color:#F2DE98"
   id="stop15" />
		</linearGradient>
		<path
   class="st7"
   d="M471.4,243.7c-17.7-3.9-47.3-9.6-73-9.9c-32.5-0.4-62.4,4-86,9.1c-5.3,1.2-4,9.1,1.4,8.5    c30.4-3.5,66.1-6.9,84.6-6.3c15.1,0.4,49.2,3.9,71.4,7.2C475.4,253,476.9,244.9,471.4,243.7z"
   id="path15" />
		<linearGradient
   id="SVGID_5_"
   gradientUnits="userSpaceOnUse"
   x1="236.7075"
   y1="109.2649"
   x2="431.2455"
   y2="299.8326">
			<stop
   offset="0"
   style="stop-color:#B38C30"
   id="stop16" />
			<stop
   offset="1"
   style="stop-color:#F2DE98"
   id="stop17" />
		</linearGradient>
		<path
   class="st8"
   d="M437.2,259c-12.5-2.7-26.8-4.8-41.4-5c-18.5-0.2-35.5,2.3-48.9,5.2c-3,0.7-2.3,5.2,0.8,4.8    c17.3-2,37.6-3.9,48.1-3.6c8.6,0.2,24.6,2.3,40.3,4.7C439.9,265.6,441,259.8,437.2,259z"
   id="path17" />
	</g>
</g>
</svg>
