<?xml version="1.0" encoding="utf-8"?>
<!-- Generator: Adobe Illustrator 22.1.0, SVG Export Plug-In . SVG Version: 6.00 Build 0)  -->
<svg version="1.1" id="Layer_1" xmlns="http://www.w3.org/2000/svg" xmlns:xlink="http://www.w3.org/1999/xlink" x="0px" y="0px"
	 viewBox="0 0 419.2 118" style="enable-background:new 0 0 419.2 118;" xml:space="preserve">
<style type="text/css">
	.st0{fill:#BB9645;}
	.st1{fill:#0A0B0B;}
	.st2{fill:#FFFFFF;}
	.st3{fill:#231F20;}
	.st4{fill:url(#SVGID_1_);}
	.st5{fill:url(#SVGID_2_);}
	.st6{fill:url(#SVGID_3_);}
	.st7{fill:url(#SVGID_4_);}
	.st8{fill:url(#SVGID_5_);}
	.st9{fill:url(#SVGID_6_);}
	.st10{fill:url(#SVGID_7_);}
	.st11{fill:url(#SVGID_8_);}
	.st12{fill:url(#SVGID_9_);}
	.st13{fill:url(#SVGID_10_);}
	.st14{fill:url(#SVGID_11_);}
	.st15{fill:#1B1B1B;}
	.st16{fill:url(#SVGID_12_);}
	.st17{fill:url(#SVGID_13_);}
	.st18{fill:url(#SVGID_14_);}
	.st19{fill:url(#SVGID_15_);}
	.st20{fill:url(#SVGID_16_);}
	.st21{fill:url(#SVGID_17_);}
	.st22{fill:url(#SVGID_18_);}
	.st23{fill:url(#SVGID_19_);}
	.st24{fill:url(#SVGID_20_);}
	.st25{fill:url(#SVGID_21_);}
	.st26{fill:url(#SVGID_22_);}
</style>
<g>
	<path class="st0" d="M119.9,22.8c-2.2-2.2-3.3-5-3.3-8.3c0-3.4,1.1-6.2,3.3-8.3c2.2-2.2,5.1-3.3,8.7-3.3c3.6,0,6.5,1.1,8.7,3.3
		c2.2,2.2,3.3,5,3.3,8.3c0,3.4-1.1,6.2-3.3,8.3c-2.2,2.2-5.1,3.3-8.7,3.3C125,26.1,122.1,25,119.9,22.8z M119.5,35h18.3v79.3h-18.3
		V35z"/>
	<path class="st0" d="M154.7,35h17v10.8c2.1-3.3,5.2-6,9.1-8c4-2.1,8.1-3.1,12.3-3.1h9.5v15.9h-9.5c-6,0-10.9,1.9-14.6,5.6
		c-3.7,3.7-5.6,8.5-5.6,14.5v43.7h-18.3V35z"/>
	<path class="st0" d="M210.1,109.4c-4.9-4.1-7.4-9.5-7.4-16.3v-5.7c0-6.7,2.6-12,7.7-16.1c5.1-4,11.9-6,20.3-6h9.9
		c3,0,18.6,0,18.6,0v-5.2c0-3.3-1.1-5.9-3.2-7.9c-2.1-2-4.9-3-8.3-3h-13.4c-3.5,0-6.3,0.8-8.4,2.5c-2.1,1.6-3.2,3.8-3.2,6.4h-17.8
		c0-7.3,2.7-13.2,8.1-17.6c5.4-4.5,12.5-6.7,21.3-6.7h13.4c8.9,0,16.1,2.4,21.5,7.2c5.4,4.8,8.1,11.2,8.1,19.2v54.2h-17v-10
		c-2.5,3.4-5.7,6.1-9.5,8.2c-3.8,2.1-7.6,3.1-11.3,3.1h-9.9C221.5,115.5,215,113.5,210.1,109.4z M240.5,101.2
		c4.2,0,8.1-1.2,11.4-3.6c3.4-2.4,5.8-5.5,7.2-9.5v-8.7c0,0-14.4,0-18,0h-10c-3.2,0-5.7,0.8-7.7,2.4c-2,1.6-2.9,3.7-2.9,6.2v4.4
		c0,2.7,1,4.8,3,6.4c2,1.6,4.7,2.4,7.9,2.4H240.5z"/>
	<path class="st0" d="M304.1,108.2c-4.1-4-6.2-10.4-6.2-19.1V50.7h-14V35h14.5V11h17.8v24h20.7v15.7h-20.7v37.8c0,3.5,0.7,6,2.1,7.6
		c1.4,1.6,3.5,2.4,6.5,2.4h12.1v15.7h-13C314.8,114.3,308.2,112.3,304.1,108.2z"/>
	<path class="st0" d="M357.4,111.9c-4.9-2.4-8.7-5.9-11.4-10.3c-2.7-4.5-4.1-9.6-4.1-15.4V64.8c0-6.1,1.4-11.6,4.1-16.3
		c2.7-4.7,6.5-8.4,11.4-11c4.9-2.6,10.6-3.9,17.1-3.9h12.7c9.6,0,17.4,2.8,23.2,8.4c5.8,5.6,8.7,13.1,8.7,22.4v15.9h-59v5.7
		c0,4.2,1.3,7.6,3.9,10.2c2.6,2.5,6.1,3.8,10.4,3.8h12.2c4.2,0,7.7-1,10.3-3.1c2.6-2.1,3.9-4.8,3.9-8.2h18c0,8.1-3,14.5-8.9,19.4
		c-5.9,4.9-13.7,7.3-23.4,7.3h-12.1C368,115.5,362.3,114.3,357.4,111.9z M401.2,66.8v-2.2c0-4.7-1.3-8.4-3.8-11.3
		c-2.5-2.9-5.9-4.3-10-4.3h-12.9c-4.3,0-7.9,1.5-10.6,4.5c-2.7,3-4.1,7-4.1,11.8v1.4H401.2z"/>
	<g>
		<path class="st0" d="M20.8,30.9c0-3.8,3.5-7,7.9-7h38.8L95.6,9.8c-4.3-4.3-10.3-6.9-16.8-6.9h-55c-13.4,0-24.1,10.7-24.1,24v32.3
			l21.1-11V30.9z"/>
		<path class="st0" d="M102.7,25.6L81.6,36.2v21.1c0,3.9-3.6,7.1-8,7.1H27.2L-0.3,78.7v18.1V107v7.2H8l7.2-0.2
			c3.1-0.7,5.7-3.6,5.7-7.1V86.6h57.9c13.2,0,24-10.7,24-24V26.8C102.7,26.4,102.7,26,102.7,25.6z"/>
	</g>
</g>
</svg>
