<?xml version="1.0" encoding="utf-8"?>
<!-- Generator: Adobe Illustrator 19.2.0, SVG Export Plug-In . SVG Version: 6.00 Build 0)  -->
<svg version="1.1" id="Layer_1" xmlns="http://www.w3.org/2000/svg" xmlns:xlink="http://www.w3.org/1999/xlink" x="0px" y="0px"
	 viewBox="0 0 1280 1280" style="enable-background:new 0 0 1280 1280;" xml:space="preserve">
<style type="text/css">
	.st0{fill:#0066CC;}
	.st1{fill:#002352;}
	.st2{fill:#FFFFFF;}
</style>
<g>
	<path class="st0" d="M640,120.1c-287.2,0-519.9,232.8-519.9,519.9s232.8,519.9,519.9,519.9s519.9-232.8,519.9-519.9
		S927.2,120.1,640,120.1z"/>
	<circle class="st1" cx="640" cy="640" r="422.4"/>
</g>
<path class="st2" d="M769.9,428l15-39.1c1.5-4-1.4-8.2-5.6-8.2h-55.7L706,426.5h-24.7l14.4-37.6c1.5-4-1.4-8.2-5.6-8.2h-55.7
	l-17.6,45.8H442.6c-7.9,0-15.3,4.3-19.2,11.2L380,514.3h60.7h264.8c10.8,0,21.5,2,31.5,6.1c19.2,7.9,41.9,25.8,36.2,66.1
	c-9.5,67.5-78.3,187.1-227.6,189l77.2-201c3.2-8.3-2.9-17.1-11.8-17.1H507.5l-125,307.2c0,0,25.2,3.1,64.7,3.1L434.8,900h56.9
	c4.5,0,8.6-2.8,10.3-7l10.7-27.8c8.4-0.7,16.9-1.6,25.7-2.6L524,900h56.9c4.5,0,8.6-2.8,10.3-7l16.2-42.3
	c93.5-21.3,194-67.7,253.7-165.6C981.6,487.7,856.4,436.7,769.9,428z"/>
</svg>
