<svg viewBox="0 0 378.19 240.66" xmlns="http://www.w3.org/2000/svg"><g fill="#fff"><path d="m150.22 67.63a7.26 7.26 0 1 1 7.25 7.26 7.26 7.26 0 0 1 -7.25-7.26zm-2.49 43a111 111 0 0 1 -15.65-15.71 135.64 135.64 0 0 1 15.57-14.76 2.77 2.77 0 1 0 -3.52-4.28 143.47 143.47 0 0 0 -15.38 14.47c-4.78-7.26-6.39-13.49-4.07-17.49s8.38-5.74 17.3-5.21a2.77 2.77 0 0 0 .33-5.53c-11.28-.67-19 2.08-22.44 8-2.14 3.72-3.41 10.37 2.77 20.92.71 1.22 1.51 2.47 2.39 3.73-8.59 10.8-11.49 20.14-7.81 26.51 2.78 4.81 8.77 7.26 17.56 7.26a63.23 63.23 0 0 0 9.77-.83 2.77 2.77 0 0 0 -.86-5.48c-11.38 1.78-19.27.42-21.66-3.72-2.07-3.58-.36-10.28 6.45-19.18a118 118 0 0 0 15.69 15.59 2.74 2.74 0 0 0 1.78.65 2.77 2.77 0 0 0 1.78-4.9zm8.05-30.3a2.76 2.76 0 0 0 -2.78 2.77v.53c0 7.54.36 15 1.06 22.21a2.78 2.78 0 0 0 2.76 2.51h.27a2.78 2.78 0 0 0 2.49-3c-.68-7-1-14.32-1-21.68v-.51a2.76 2.76 0 0 0 -2.8-2.82zm41.64 21.33a225.26 225.26 0 0 1 -24.5 11.85 2.78 2.78 0 0 0 1.05 5.35 2.81 2.81 0 0 0 1.05-.21 231.7 231.7 0 0 0 25.1-12.14 2.78 2.78 0 0 0 -2.7-4.85zm63.58-63.39c-4.18-7.23-15.41-9.12-32.5-5.46a140.37 140.37 0 0 0 -18.73 5.52 121.44 121.44 0 0 0 -4.08-14.07c-5.78-15.87-13.36-24.26-21.97-24.26-15.42 0-24.82 26.69-28.49 51.67a2.77 2.77 0 0 0 5.49.8c4.05-27.63 13.51-46.92 23-46.92 5.89 0 12 7.51 16.71 20.6a118.81 118.81 0 0 1 4.06 14.18 232.38 232.38 0 0 0 -29.76 14.56c-1.64 1-3.32 1.94-5 3a2.77 2.77 0 1 0 2.88 4.74c1.65-1 3.29-2 4.89-2.9a227.56 227.56 0 0 1 28.12-13.85 206.44 206.44 0 0 1 3.24 34 2.77 2.77 0 0 0 2.77 2.73h.05a2.79 2.79 0 0 0 2.73-2.82 210.23 210.23 0 0 0 -3.54-35.93c23.8-8.8 41.44-9.42 45.28-2.77 2.1 3.64.25 9.85-5.21 17.47-5.94 8.23-15.49 17.44-27.65 26.44a2.77 2.77 0 1 0 3.31 4.45c12.62-9.4 22.59-19 28.84-27.71 4.82-6.74 9.68-16.24 5.56-23.47zm-34.24 63.19a2.77 2.77 0 0 0 -3.62 4.2c17 14.61 25.6 29.25 21.46 36.42-2.86 5-11.86 6.53-24.69 4.32a105.43 105.43 0 0 1 -14.16-3.55 148.86 148.86 0 0 0 7.09-31.65 2.77 2.77 0 1 0 -5.5-.68 143.5 143.5 0 0 1 -6.84 30.54 178.8 178.8 0 0 1 -27.55-13 2.78 2.78 0 0 0 -2.77 4.81 184.44 184.44 0 0 0 28.26 13.34c-.3.68-.6 1.34-.91 2-4.2 8.73-9.09 13.53-13.76 13.53-6.76 0-13.71-9.84-18.58-26.32a2.77 2.77 0 0 0 -5.32 1.58c5.78 19.53 14.27 30.29 23.9 30.29 7 0 13.5-5.77 18.76-16.67.4-.83.79-1.7 1.17-2.58a111.61 111.61 0 0 0 15.27 3.85 65.82 65.82 0 0 0 11.15 1c9.52 0 16.22-2.75 19.28-8.06 5.73-9.98-2.74-26.2-22.69-43.37zm-25.76-18.28-1.75-1a186.47 186.47 0 0 0 -25.89-12.47 2.78 2.78 0 0 0 -2 5.18 179.31 179.31 0 0 1 25.1 12.11l1.7 1a2.71 2.71 0 0 0 1.41.39 2.77 2.77 0 0 0 1.43-5.21zm-34.57 37.82a7.25 7.25 0 1 0 -7.25 7.25 7.25 7.25 0 0 0 7.25-7.25zm52.49-25.6a7.26 7.26 0 1 0 -7.26 7.25 7.26 7.26 0 0 0 7.26-7.28z"/><path d="m256.37 189.3c15.77 0 27.15 11.52 27.15 25.68s-11.38 25.68-27.15 25.68h-16.65a1 1 0 0 1 -1-1v-49.4a1 1 0 0 1 1-1zm-7.37 40.12a1 1 0 0 0 1 1h6.38c9.54 0 16.14-6.24 16.14-15.41s-6.6-15.41-16.14-15.41h-6.38a1 1 0 0 0 -1 1z"/><path d="m323.81 190.26v8.34a1 1 0 0 1 -1 1h-23a1 1 0 0 0 -1 1v7.24a1 1 0 0 0 1 1h16.41a1 1 0 0 1 1 1v8.34a1 1 0 0 1 -1 1h-16.39a1 1 0 0 0 -1 1v9.44a1 1 0 0 0 1 1h23.75a1 1 0 0 1 1 1v8.35a1 1 0 0 1 -1 1h-34a1 1 0 0 1 -1-1v-49.71a1 1 0 0 1 1-1h33.29a1 1 0 0 1 .94 1z"/><path d="m342.56 189.71 9.81 14.21a1 1 0 0 0 1.59 0l9.81-14.21a1 1 0 0 1 .8-.41h10.43a1 1 0 0 1 .79 1.53l-16 22.11a1 1 0 0 0 0 1.14l18.18 25a1 1 0 0 1 -.78 1.53h-10.42a1 1 0 0 1 -.79-.41l-12-17.17a1 1 0 0 0 -1.58 0l-12 17.17a1 1 0 0 1 -.79.41h-10.5a1 1 0 0 1 -.78-1.53l18.19-25a1 1 0 0 0 0-1.14l-16-22.11a1 1 0 0 1 .78-1.53h10.46a1 1 0 0 1 .8.41z"/><path d="m128.61 203.13a17.89 17.89 0 0 1 9.28-2.83c5.78 0 9.94 1.61 12.77 4.25a1.62 1.62 0 0 0 2.09.07 20 20 0 0 1 11.8-4.32c12.12 0 17.37 6.86 17.37 17.77v19.79a1.62 1.62 0 0 1 -1.62 1.61h-6.14a1.61 1.61 0 0 1 -1.61-1.61v-18.76c0-6.46-2.83-9.78-8.32-9.78a12.19 12.19 0 0 0 -8.44 3.53 1.65 1.65 0 0 0 -.53 1.2v23.79a1.61 1.61 0 0 1 -1.61 1.61h-6.14a1.61 1.61 0 0 1 -1.62-1.61v-18.74c0-6.46-2.83-9.78-8.32-9.78a12.17 12.17 0 0 0 -8.43 3.53 1.61 1.61 0 0 0 -.53 1.2v23.79a1.62 1.62 0 0 1 -1.62 1.61h-6.14a1.61 1.61 0 0 1 -1.61-1.61v-34.71a1.61 1.61 0 0 1 1.61-1.61h6.15a1.62 1.62 0 0 1 1.61 1.61z"/><path d="m72.73 232.53a1.62 1.62 0 0 0 -2.09-1.53 13.79 13.79 0 0 1 -4.13.64c-3.23 0-6.06-2.1-6.06-8.56v-10.5a1.62 1.62 0 0 1 1.62-1.62h9.05a1.61 1.61 0 0 0 1.61-1.61v-6.22a1.61 1.61 0 0 0 -1.61-1.62h-9.05a1.62 1.62 0 0 1 -1.62-1.62v-6.46a1.61 1.61 0 0 0 -1.61-1.61h-6.22a1.62 1.62 0 0 0 -1.62 1.59v6.46a1.61 1.61 0 0 1 -1.61 1.62h-3.64a1.61 1.61 0 0 0 -1.61 1.62v6.22a1.61 1.61 0 0 0 1.61 1.61h3.64a1.61 1.61 0 0 1 1.61 1.62v11.3c0 10.5 5.25 16.8 15.51 16.8a19.49 19.49 0 0 0 5.08-.86 1.61 1.61 0 0 0 1.14-1.55z"/><path d="m94.9 200.28a20.19 20.19 0 1 0 20.2 20.19 20.19 20.19 0 0 0 -20.2-20.19zm0 31.33a11.14 11.14 0 1 1 11.1-11.14 11.14 11.14 0 0 1 -11.1 11.14z"/><rect height="9.74" rx="4.87" width="9.74" x="187.07" y="186.76"/><rect height="37.96" rx="1.62" width="9.37" x="187.2" y="201.49"/><path d="m38.77 201.49h-6.14a1.61 1.61 0 0 0 -1.63 1.62v.31a20.2 20.2 0 1 0 0 34.09v.33a1.61 1.61 0 0 0 1.61 1.61h6.14a1.62 1.62 0 0 0 1.62-1.61v-34.73a1.62 1.62 0 0 0 -1.6-1.62zm-18.58 30.12a11.14 11.14 0 1 1 10.81-13.78v5.28a11.15 11.15 0 0 1 -10.81 8.5z"/><path d="m231.78 231.46a1.62 1.62 0 0 0 -2.29-1.47 17.86 17.86 0 0 1 -7.4 1.63c-7 0-11.39-4.93-11.39-11.15s4.37-11.15 11.39-11.15a17.86 17.86 0 0 1 7.4 1.63 1.61 1.61 0 0 0 2.29-1.46v-6.06a1.59 1.59 0 0 0 -1-1.49 22.82 22.82 0 0 0 -8.7-1.66c-12.52 0-21 9-21 20.19s8.48 20.19 21 20.19a22.82 22.82 0 0 0 8.7-1.65 1.6 1.6 0 0 0 1-1.5z"/></g></svg>