<?xml version="1.0" encoding="UTF-8" standalone="no"?>
<svg
   data-v-a620838e=""
   viewBox="0 0 111.47 27.03"
   class="logo monogram"
   version="1.1"
   id="svg2"
   sodipodi:docname="logo_dark.svg"
   xml:space="preserve"
   inkscape:version="1.3.2 (091e20e, 2023-11-25)"
   xmlns:inkscape="http://www.inkscape.org/namespaces/inkscape"
   xmlns:sodipodi="http://sodipodi.sourceforge.net/DTD/sodipodi-0.dtd"
   xmlns="http://www.w3.org/2000/svg"
   xmlns:svg="http://www.w3.org/2000/svg"><defs
     id="defs2" /><sodipodi:namedview
     id="namedview2"
     pagecolor="#ffffff"
     bordercolor="#000000"
     borderopacity="0.25"
     inkscape:showpageshadow="2"
     inkscape:pageopacity="0.0"
     inkscape:pagecheckerboard="0"
     inkscape:deskcolor="#d1d1d1"
     inkscape:zoom="5.7747553"
     inkscape:cx="58.270867"
     inkscape:cy="-45.369888"
     inkscape:window-width="1448"
     inkscape:window-height="1229"
     inkscape:window-x="609"
     inkscape:window-y="44"
     inkscape:window-maximized="0"
     inkscape:current-layer="svg2" /><path
     id="path14"
     style="fill:#ffffff;stroke-width:0.0360174"
     d="M 9.5648389,21.227657 C 9.3055351,21.195966 8.9658393,21.13464 8.6734082,21.066725 l -0.3151523,-0.07319 v -1.797869 -1.797869 h 1.9089231 1.908922 v 1.797869 1.797869 l -0.331095,0.07773 c -0.525591,0.123394 -1.049502,0.179351 -1.631853,0.174292 -0.2971445,-0.0026 -0.5888854,-0.01064 -0.6483141,-0.0179 z m -0.236332,5.749211 C 7.3594006,26.805268 5.493351,26.208945 3.8238436,25.217776 2.0152664,24.144042 0.77245151,22.511762 0.26958352,20.549705 0.00547429,19.519221 0.0180087,19.868275 0.0180087,13.543933 c 0,-5.9967279 -0.001433,-5.9389862 0.16699391,-6.7270023 C 0.63896441,4.6929932 1.9208878,2.9235022 3.8184003,1.8016047 5.1215498,1.0311221 6.5678062,0.49322016 8.0698503,0.22037548 9.337826,-0.00995099 10.871131,-0.02998687 12.191063,0.16652308 c 1.74429,0.25968806 3.553602,0.94409052 4.967099,1.87888862 1.39801,0.9245559 2.457944,2.3016549 3.008092,3.9082092 0.300945,0.8788228 0.399682,1.5746333 0.399682,2.8165871 V 9.6180364 H 18.66094 16.755943 L 16.739077,8.6905883 C 16.724522,7.8902179 16.711614,7.7236597 16.644875,7.475001 16.453783,6.7630252 16.117685,6.1702577 15.634311,5.6926954 14.848992,4.9168186 13.300071,4.2274521 11.739487,3.959255 11.086373,3.8470129 9.6166506,3.8366287 8.9683329,3.9396756 8.4483543,4.0223236 7.7261572,4.2062951 7.2575063,4.375489 6.7817139,4.547261 5.9396645,4.9584058 5.5695314,5.1996705 4.7433955,5.7381731 4.1797996,6.5310562 3.9393831,7.4930097 3.8747848,7.7514796 3.8718706,8.0119016 3.8718706,13.525924 v 5.762784 l 0.096135,0.342166 c 0.182949,0.651155 0.4530586,1.133287 0.896377,1.599985 0.3207587,0.337676 0.62069,0.56179 1.1319368,0.845805 0.9717366,0.539832 2.0972339,0.903449 3.2601526,1.053265 0.4407826,0.05679 1.648226,0.05679 2.089009,0 1.360555,-0.175277 2.745645,-0.672283 3.723237,-1.335992 0.773681,-0.525268 1.317909,-1.286532 1.56109,-2.183643 l 0.09694,-0.357603 0.01295,-1.917927 0.01295,-1.917926 H 11.275721 5.7988016 v -1.908923 -1.908922 h 7.4015754 7.401576 l -3.71e-4,3.610745 c -2.25e-4,2.180642 -0.01512,3.781928 -0.03762,4.042953 -0.21434,2.487131 -1.584781,4.660771 -3.752613,5.951976 -1.558519,0.928285 -3.173122,1.478882 -5.051669,1.722673 -0.494914,0.06423 -1.9275784,0.09342 -2.4311741,0.04953 z" /><path
     style="fill:#ffffff;stroke-width:0.0254181"
     d="m 42.027522,22.411998 c -1.828948,-0.161933 -3.539411,-0.894648 -4.90877,-2.102781 -1.157751,-1.021439 -2.09228,-2.59729 -2.497059,-4.210667 -0.205289,-0.818247 -0.248508,-1.266796 -0.248665,-2.580758 -1.47e-4,-1.232134 0.041,-1.714068 0.207344,-2.428444 0.396048,-1.7008749 1.380805,-3.3702447 2.592292,-4.394479 1.450673,-1.2264509 3.208964,-1.9358476 5.134458,-2.0715377 1.813138,-0.1277723 3.344815,0.1472255 4.765895,0.8556704 0.962888,0.4800244 1.880078,1.1847678 2.439209,1.8742201 0.733852,0.9048981 1.209433,2.0534619 1.324109,3.1978262 l 0.01719,0.171572 H 49.18683 47.520134 L 47.504054,10.6273 C 47.359133,9.768458 46.900066,8.9780286 46.236404,8.4446375 45.697198,8.0112732 44.926977,7.6608211 44.210571,7.522879 43.636253,7.4122958 42.801307,7.3962722 42.173821,7.4837913 40.881287,7.6640687 39.646484,8.357324 38.855596,9.346743 c -0.780812,0.976813 -1.236644,2.158902 -1.324489,3.434744 -0.03176,0.461295 -0.01106,1.54217 0.03675,1.919067 0.204441,1.611519 1.045493,3.15516 2.193871,4.026561 0.657794,0.49914 1.395005,0.816205 2.291209,0.985421 0.345466,0.06523 1.59796,0.06522 1.968812,-7e-6 0.845899,-0.148788 1.506575,-0.414824 2.237885,-0.901134 0.590819,-0.392885 0.911279,-0.739229 1.169545,-1.264013 0.219531,-0.446076 0.340036,-0.961412 0.310592,-1.328231 -0.02496,-0.310967 -0.21001,-0.57952 -0.498079,-0.722842 l -0.117842,-0.05863 -1.938131,-0.007 -1.93813,-0.007 v -1.258401 -1.258401 l 2.535456,0.0075 2.535456,0.0075 0.248522,0.06832 c 0.287273,0.07898 0.652944,0.24547 0.885701,0.403266 0.227157,0.154 0.630326,0.552194 0.78364,0.773971 0.161849,0.234123 0.309139,0.542229 0.400676,0.838147 l 0.07076,0.228763 0.007,3.501345 0.007,3.501344 h -1.424092 -1.424021 v -1.364105 c 0,-0.750258 -0.0072,-1.356929 -0.01595,-1.348159 -0.0088,0.0088 -0.05833,0.11076 -0.110125,0.226645 -0.249108,0.55731 -0.671279,1.113514 -1.140014,1.501949 -0.298926,0.247716 -0.560695,0.413256 -0.954598,0.603678 -0.604387,0.292176 -1.206992,0.46846 -1.864148,0.545332 -0.354329,0.04145 -1.341059,0.04684 -1.761335,0.0096 z"
     id="path15" /><path
     style="fill:#ffffff;stroke-width:0.0254181"
     d="M 59.236902,22.24235 C 57.545327,22.23103 55.620859,22.21446 54.960306,22.20552 L 53.7593,22.189262 v -8.7154 -8.7154002 h 1.639468 1.639468 v 7.3331242 7.333125 h 4.117734 4.117733 v 1.423414 1.423414 l -1.480605,-0.0043 c -0.814332,-0.0024 -2.86462,-0.01357 -4.556196,-0.02488 z"
     id="path16" /><path
     style="fill:#ffffff;stroke-width:0.0254181"
     d="m 72.97539,22.242473 c -1.782445,-0.01128 -3.804137,-0.02787 -4.49265,-0.03687 l -1.251842,-0.01636 V 13.473855 4.7584617 h 5.833456 5.833456 v 1.410705 1.410705 h -4.181279 -4.181279 v 2.1478302 2.1478301 h 3.35519 3.355191 v 1.410705 1.410705 h -3.355191 -3.35519 v 2.363884 2.363885 h 4.321078 4.321079 v 1.423414 1.423414 l -1.480605,-0.0043 c -0.814333,-0.0024 -2.938969,-0.01351 -4.721414,-0.02479 z"
     id="path17" /><path
     style="fill:#ffffff;stroke-width:0.0254181"
     d="m 87.48913,22.242473 c -1.782444,-0.01128 -3.804137,-0.02787 -4.49265,-0.03687 l -1.251842,-0.01636 V 13.473855 4.7584617 h 5.833456 5.833456 v 1.410705 1.410705 h -4.181279 -4.181279 v 2.1478302 2.1478301 h 3.35519 3.355191 v 1.410705 1.410705 h -3.355191 -3.35519 v 2.363884 2.363885 h 4.308369 4.30837 v 1.423414 1.423414 l -1.467896,-0.0043 c -0.807343,-0.0024 -2.92626,-0.01351 -4.708705,-0.02479 z"
     id="path18" /><path
     style="fill:#ffffff;stroke-width:0.0254181"
     d="m 102.85438,22.433657 c -1.07249,-0.08657 -1.92281,-0.271656 -2.8087,-0.611345 -0.856363,-0.328364 -1.51687,-0.705395 -2.211379,-1.262298 -0.272839,-0.21878 -0.895536,-0.849355 -1.131673,-1.14599 -0.589031,-0.73994 -1.023236,-1.56385 -1.360209,-2.581016 -0.228449,-0.689583 -0.348396,-1.230576 -0.445211,-2.00803 -0.05525,-0.443693 -0.07927,-2.013933 -0.03818,-2.49616 0.09437,-1.107548 0.371693,-2.118874 0.852396,-3.1085336 0.484493,-0.9974597 1.235992,-1.9845325 1.985805,-2.6082993 1.386825,-1.1536945 3.054121,-1.8424791 4.855281,-2.0057909 0.52646,-0.047735 1.96576,-0.019765 2.38695,0.046385 0.99585,0.1564031 1.80038,0.4127719 2.65539,0.8461549 1.42969,0.7246724 2.46299,1.7047965 3.11462,2.9543525 0.3488,0.6688544 0.54944,1.2982222 0.68011,2.1334214 l 0.0109,0.0699 h -1.70029 c -1.33882,0 -1.70206,-0.0068 -1.70864,-0.03177 -0.005,-0.01747 -0.0268,-0.129065 -0.0494,-0.247977 -0.23503,-1.2387376 -1.13439,-2.1645892 -2.58815,-2.6643867 -1.42032,-0.4882989 -2.93887,-0.3942944 -4.26248,0.2638659 -0.78908,0.3923681 -1.359148,0.8568091 -1.763481,1.4367413 -0.62979,0.9033055 -1.022093,1.9579055 -1.138638,3.0609245 -0.04385,0.415023 -0.01953,2.055532 0.03542,2.389302 0.184312,1.119468 0.642856,2.186414 1.290897,3.003674 0.313543,0.395416 0.910712,0.83697 1.559332,1.152994 0.56337,0.274487 1.08714,0.434417 1.71424,0.523422 0.39796,0.05649 1.11376,0.056 1.51259,-0.001 1.05658,-0.151067 2.12039,-0.621271 2.74653,-1.213963 0.49832,-0.471695 0.81496,-1.007618 0.97834,-1.655839 l 0.0716,-0.284179 1.62915,-0.0065 1.62914,-0.0065 v 0.09088 c 0,0.171958 -0.0818,0.659922 -0.16646,0.993404 -0.39708,1.563405 -1.38091,2.876784 -2.79998,3.73785 -1.10933,0.67313 -2.30915,1.077565 -3.60414,1.214887 -0.32106,0.03405 -1.60012,0.0483 -1.93177,0.02153 z"
     id="path19" /></svg>
